<?xml version="1.0" encoding="utf-8"?>
<!-- Generator: Adobe Illustrator 23.0.0, SVG Export Plug-In . SVG Version: 6.00 Build 0)  -->
<svg version="1.1" id="Calque_1" xmlns="http://www.w3.org/2000/svg" xmlns:xlink="http://www.w3.org/1999/xlink" x="0px" y="0px"
	 viewBox="0 0 502.96 312.43" style="enable-background:new 0 0 502.96 312.43;" xml:space="preserve">
<style type="text/css">
	.st0{fill:none;stroke:#000000;stroke-width:5;}
</style>
<g>
	<path class="st0" d="M102.85,162.52c-0.58-0.29-1.25-0.7-2-1.23c-4.22-2.16-8.75-4.44-13.6-6.83c-4.85-2.38-9.15-4.43-12.89-6.15
		c-1.44-0.67-2.42-0.96-2.93-0.87c-0.38,0.06-0.84,0.48-1.37,1.23c-2.55,4.28-5.33,9.14-8.34,14.56c-3.01,5.42-5.98,10.7-8.91,15.85
		c-4.21-2.17-8.76-4.51-13.63-7.02c-4.87-2.51-9.18-4.63-12.92-6.35c-1.44-0.67-2.42-0.96-2.93-0.87c-0.38,0.06-0.84,0.48-1.37,1.23
		c-2.63,4.56-5.64,9.79-9.03,15.67c-3.4,5.89-6.59,11.61-9.57,17.16c-0.21,0.3-0.42,0.64-0.62,1c-0.2,0.37-0.28,0.68-0.23,0.93
		c0.09,0.52,0.87,1.17,2.33,1.97c4.3,2.68,8.9,5.34,13.8,7.98c4.89,2.64,9.35,4.87,13.37,6.67c1.14,0.46,1.96,0.64,2.48,0.55
		c0.25-0.04,0.57-0.32,0.94-0.86c0.37-0.52,0.64-1,0.83-1.43l17.13-29.99c4.31,2.68,8.89,5.27,13.77,7.79
		c4.87,2.51,9.31,4.67,13.34,6.47c1.13,0.46,1.96,0.65,2.47,0.56c0.26-0.05,0.57-0.33,0.94-0.86c0.37-0.53,0.65-1.01,0.84-1.44
		l18.32-32.19c0.59-1.16,0.85-1.93,0.79-2.32C103.77,163.22,103.43,162.82,102.85,162.52z M136.5,210.54l-1.54-0.05
		c0.6,0.63,1.22,1.22,1.84,1.78L136.5,210.54z"/>
	<path class="st0" d="M198.69,166.75c0.03,5.09-0.08,10.23-0.35,15.44c-0.65,4.61-1.27,9.68-1.89,15.2
		c-0.61,5.53-1.44,11.13-2.49,16.8c-1.05,5.68-2.45,11.21-4.21,16.61c-1.76,5.4-4.06,10.34-6.91,14.81
		c-2.85,4.46-6.35,8.25-10.49,11.36c-4.15,3.11-9.17,5.19-15.07,6.23c-6.41,1.13-12.23,0.74-17.46-1.19
		c-2.74-1.01-5.33-2.28-7.74-3.82c-2.17,0.26-4.48,0.44-6.92,0.55c-4.06,0.19-8.23,0.37-12.5,0.52c-4.27,0.16-8.54,0.35-12.79,0.57
		c-4.26,0.22-8.19,0.65-11.77,1.28c-4.37,0.77-8.3,2.62-11.82,5.55c-3.52,2.94-6.82,6.13-9.91,9.59
		c-3.86,4.38-7.34,9.19-10.45,14.43c-3.11,5.24-5.9,10.19-8.38,14.86c-1.11,2.71-2.25,4.17-3.4,4.37c-1.03,0.18-1.73-0.82-2.11-3
		c-0.28-1.54-0.23-3.53,0.13-5.97c1.52-7.15,3.34-14.41,5.48-21.79s4.9-14.61,8.28-21.69c2.71-5.63,5.8-10.97,9.27-16.01
		c3.48-5.04,7.38-9.53,11.71-13.47c4.33-3.93,9.13-7.26,14.41-9.97c5.27-2.72,11.05-4.63,17.33-5.74c1.16-0.2,2.57-0.41,4.25-0.65
		c1.68-0.22,3.46-0.44,5.34-0.64c0.4-0.04,0.79-0.08,1.18-0.12l7.99-11.41c1.29,2.81,2.75,5.27,4.38,7.36
		c1.04,1.34,2.1,2.57,3.18,3.68c0.6,0.63,1.22,1.22,1.84,1.78h0.01c3.91,3.41,7.8,5.7,11.71,6.86c3.91,1.16,7.72,1.41,11.44,0.76
		c3.46-0.61,6.66-2.17,9.59-4.67s5.38-5.51,7.33-9.02c1.96-3.52,3.34-7.33,4.14-11.44c0.79-4.11,0.85-8.08,0.18-11.93
		c-0.73-4.1-1.59-8.58-2.57-13.43c-0.99-4.85-1.89-9.39-2.7-13.61c-0.81-4.22-1.53-7.76-2.17-10.62c-0.63-2.87-0.97-4.42-1.02-4.68
		c-0.95-5.39-1.61-10.63-1.97-15.72c-0.38-5.09-0.41-10.17-0.11-15.25c0.05-1.2,0.22-3.38,0.53-6.54c0.3-3.16,0.65-6.46,1.03-9.9
		c0.39-3.44,0.77-6.71,1.15-9.82c0.37-3.1,0.65-5.27,0.83-6.49c0.19-1.22,0.48-3.32,0.88-6.3c0.4-2.98,0.91-6.08,1.53-9.3
		c0.63-3.21,1.38-6.06,2.27-8.53c0.88-2.47,1.9-3.81,3.06-4.01c1.02-0.18,1.75,0.22,2.19,1.2s0.72,1.79,0.83,2.43
		c0.38,2.19,0.54,5.89,0.47,11.13c-0.07,5.23,0.54,11.5,1.83,18.81c2.82,16.03,5.03,29.29,6.62,39.79
		c1.58,10.5,2.77,19.31,3.56,26.44C198.24,155.56,198.65,161.67,198.69,166.75z"/>
	<path class="st0" d="M426.33,111.96c-0.89,4.72-2.41,9.58-4.57,14.59c-2.33,5.57-5.08,10.94-8.27,16.13
		c-3.18,5.19-6.89,10.01-11.13,14.46c-0.92,0.82-2.08,1.36-3.49,1.6l-5.64,0.6c-1.29,0.23-2.33,0.68-3.14,1.35
		c-1.02,0.97-2.13,2.36-3.33,4.16c-1.2,1.79-2.42,3.73-3.64,5.79c-1.22,2.07-2.42,4.1-3.59,6.09c-1.17,1.99-2.23,3.66-3.18,5.02
		c-0.63,0.91-1.51,1.73-2.64,2.45c-1.13,0.73-2.82,1.43-5.09,2.09c-1.79,0.31-3.76,0.4-5.9,0.25c-2.14-0.15-4.39-0.35-6.75-0.6
		c-2.36-0.24-4.74-0.42-7.13-0.53c-2.4-0.1-4.63,0.02-6.68,0.39c-1.8,0.31-3.55,0.85-5.27,1.62c-1.71,0.77-3.07,2.09-4.05,3.98
		c-2.36,4.65-4.76,9.57-7.22,14.76c-2.46,5.2-5.29,10.13-8.5,14.79c-3.21,4.66-6.93,8.69-11.16,12.08
		c-4.23,3.39-9.29,5.6-15.19,6.64c-6.41,1.13-12.16,0.43-17.23-2.12c-5.07-2.54-9.48-6.16-13.22-10.86
		c-3.73-4.69-6.81-9.97-9.23-15.82c-2.29-5.53-4-10.97-5.13-16.3c-0.01-0.03-0.01-0.06-0.02-0.09c-0.49-1.94-0.9-3.86-1.24-5.79
		c-0.11-0.64-0.31-1.76-0.59-3.36c-0.29-1.61-0.65-4.05-1.1-7.35c-0.45-3.29-1-7.72-1.65-13.29c-0.65-5.57-1.51-12.69-2.57-21.36
		c-1.07-8.67-2.31-19.06-3.71-31.18c-1.41-12.11-3.05-26.47-4.91-43.06c-0.17-1.69-0.31-3.42-0.42-5.19
		c-0.11-1.76-0.03-3.33,0.26-4.7l7.07-34.17c0.28-1.37,0.59-2.61,0.93-3.73c0.33-1.12,1.01-1.77,2.03-1.95
		c0.51-0.09,0.96,0.17,1.33,0.76c0.37,0.6,0.81,2.37,1.33,5.32c0.5,2.82,1.1,6.98,1.8,12.47c0.7,5.5,1.64,13.04,2.8,22.61
		c1.16,9.59,2.57,21.56,4.25,35.94c1.67,14.39,3.73,31.87,6.17,52.46c0.77,4.37,1.82,9.2,3.15,14.52c0.6,2.36,1.25,4.68,1.96,6.94
		c1.25,3.33,2.76,6.39,4.55,9.17c1.91,2.97,4.2,5.47,6.88,7.51c2.67,2.04,5.77,3.48,9.29,4.32c3.51,0.83,7.58,0.84,12.2,0.03
		c4.36-0.77,8.56-2.27,12.59-4.5c4.04-2.23,7.81-4.85,11.31-7.85c3.51-2.99,6.8-6.25,9.88-9.77c3.08-3.52,5.9-7.02,8.46-10.52
		c1.8-2.56,3.68-4.81,5.65-6.74c1.98-1.94,4.5-3.18,7.58-3.72c1.28-0.22,2.75-0.32,4.41-0.28s3.4,0.13,5.21,0.27
		c1.81,0.15,3.57,0.23,5.3,0.26c1.72,0.03,3.22-0.07,4.51-0.3c2.3-0.41,4.3-1.45,5.99-3.14c1.68-1.68,3.08-3.68,4.2-5.99
		c1.11-2.31,2.04-4.76,2.77-7.33c0.74-2.58,1.36-5.04,1.87-7.38c0.49-2.46,1.32-4.52,2.48-6.18c1.17-1.66,2.26-2.58,3.29-2.76
		c1.15-0.21,1.87,0.53,2.17,2.19c0.22,1.29,0.2,2.68-0.06,4.18c-0.14,0.69-0.29,1.57-0.42,2.65c-0.14,1.08-0.25,2.19-0.31,3.33
		c-0.07,1.13-0.12,2.13-0.17,3c-0.04,0.87-0.03,1.49,0.04,1.88c0.66,0.01,1.35-0.01,2.07-0.07c0.71-0.06,1.39-0.15,2.03-0.26
		c5.01-0.88,8.74-2.36,11.22-4.45c2.47-2.09,4.77-5.37,6.89-9.85c1.55-3.18,2.72-6.49,3.5-9.93c0.79-3.45,1.48-6.81,2.09-10.09
		c0.15-0.69,0.42-1.59,0.81-2.72c0.4-1.13,1.05-1.77,1.94-1.93c1.16-0.2,1.98-0.02,2.48,0.55c0.5,0.58,0.83,1.32,0.99,2.21
		C427.28,101.98,427.21,107.24,426.33,111.96z"/>
	<path class="st0" d="M488.71,64.18c1.79-0.32,3.05,0.06,3.77,1.12c0.72,1.06,1.14,1.98,1.28,2.75c1.69,9.62,3.13,19.84,4.32,30.67
		c1.18,10.83,1.93,21.84,2.25,33.02c0.32,11.18,0.09,22.26-0.69,33.24c-0.78,10.98-2.27,21.42-4.49,31.33
		c-0.68,2.9-2.39,5.78-5.12,8.64c-2.74,2.86-6.04,5.66-9.92,8.39c-3.88,2.73-8.09,5.29-12.63,7.68c-4.54,2.39-8.89,4.51-13.06,6.37
		c-4.17,1.86-7.9,3.38-11.2,4.55c-3.29,1.18-5.71,1.9-7.25,2.17c-0.89,0.16-1.86,0.16-2.87,0.01c-1.02-0.15-1.58-0.55-1.7-1.19
		c-0.16-0.9,0.4-2.25,1.66-4.06c1.27-1.81,3-4,5.19-6.57c2.19-2.57,4.75-5.47,7.69-8.69c2.93-3.23,5.99-6.71,9.17-10.44
		c8.9-10.29,15.44-20.6,19.64-30.93c4.2-10.32,6.98-20.77,8.36-31.32c1.38-10.56,1.9-21.29,1.56-32.21
		c-0.34-10.91-0.54-22.18-0.6-33.81c-0.03-0.92,0.02-1.95,0.15-3.1c0.13-1.14,0.36-2.25,0.71-3.3c0.34-1.05,0.81-1.99,1.39-2.82
		C486.88,64.87,487.68,64.36,488.71,64.18z"/>
</g>
<path d="M92.07,105.31l0.13,0.12c0.02,0.02-0.01,0.05-0.03,0.03l-0.12-0.13C92.02,105.32,92.05,105.29,92.07,105.31z"/>
<path d="M82.89,61.53c0.24,0.46,0.48,0.92,0.71,1.38c-2.92-0.93-5.68-2.4-8.44-3.72C64.73,54.2,53.92,48.6,46.72,39.23
	c-0.1-0.14-0.35,0.01-0.26,0.16c0.01,0.01,0.01,0.02,0.02,0.03c0,0,0,0,0,0c0,0,0,0,0,0c0.26,0.42,0.53,0.84,0.82,1.25
	c-0.05-0.06-0.1-0.12-0.15-0.18c-0.16-0.18-0.43,0.04-0.28,0.23c3.76,5.01,8.27,10.1,13.93,13c-0.01,0.02-0.02,0.03-0.02,0.05
	c-0.05-0.04-0.1-0.08-0.15-0.12c-0.08-0.06-0.2,0.06-0.12,0.13c3.73,3.57,8.24,6.37,12.62,9.07c4.75,2.92,9.55,5.79,14.37,8.59
	c0.03,0.01,0.05,0.02,0.07,0.02c0.22,0.53,0.45,1.06,0.66,1.6c-2.43-1.41-4.99-2.62-7.41-4.05c-2.43-1.43-4.82-2.94-7.15-4.55
	c-4.75-3.27-9.19-6.91-13.48-10.76c-0.13-0.11-0.33,0.1-0.21,0.22c0.04,0.04,0.09,0.08,0.13,0.12c-0.08,0.02-0.14,0.11-0.07,0.19
	c3.86,4.3,7.97,8.29,12.82,11.47c5.12,3.36,10.64,6.19,16.05,9.05c0.15,0.4,0.31,0.79,0.46,1.19c-10.73-5.9-21.92-12.09-29.63-21.86
	c-0.07-0.09-0.23,0-0.18,0.11c0.17,0.35,0.34,0.69,0.53,1.02c-0.02,0.02-0.03,0.05-0.01,0.09c1.08,2.92,3.32,5.53,5.54,7.65
	c2.24,2.14,4.76,4.05,7.41,5.67c-0.02,0.02-0.04,0.05-0.04,0.09c-0.01,1.29,0.26,2.65,0.88,3.81c-0.97-0.9-1.91-1.84-2.81-2.82
	c-0.01-0.01-0.02-0.01-0.02-0.01c-0.18-0.28-0.36-0.56-0.52-0.84c-0.06-0.12-0.12-0.24-0.19-0.35c-0.11-0.21-0.22-0.43-0.32-0.64
	c-0.05-0.1-0.19-0.03-0.15,0.07c0.9,2.67,2.25,5.28,4.04,7.46c1.58,1.91,3.56,3.44,5.66,4.72c2.13,1.3,4.39,2.38,6.62,3.5
	c2.14,1.07,4.57,2.13,6.35,3.8c-0.73-0.55-1.58-0.95-2.42-1.3c-1.51-0.62-3.08-1.09-4.65-1.54c-3.16-0.9-6.64-1.73-9.2-3.92
	c-0.12-0.1-0.28,0.05-0.23,0.18c1.21,2.98,5.02,3.93,7.82,4.66c0.83,0.22,1.66,0.42,2.48,0.64c-2.95-0.37-6.05-0.5-8.43-2.04
	c-0.17-0.11-0.32,0.08-0.22,0.23c0.67,1.08,1.94,1.35,3.1,1.63c0.85,0.21,1.71,0.42,2.57,0.62c-1.79-0.31-3.56-0.68-5.2-1.48
	c-0.09-0.05-0.21,0.05-0.19,0.15c0,0.02,0.01,0.03,0.01,0.05c-0.54-0.64-0.96-1.4-1.18-2.33c-0.03-0.14-0.21-0.13-0.24,0
	c-0.23,0.97-0.07,1.96,0.47,2.77c-1.23-1.14-2.22-2.51-2.98-4.03c-0.05-0.11-0.24-0.1-0.25,0.04c-0.03,0.56,0.02,1.05,0.3,1.54
	c0.05,0.08,0.21,0.06,0.18-0.05c-0.09-0.3-0.16-0.58-0.2-0.88c0.81,1.58,1.95,3,3.32,4.12c1.71,1.41,3.72,2.18,5.78,2.93
	c2.63,0.95,5.06,2.17,7.39,3.57c-1.91-1.03-3.98-1.83-5.89-2.6c-4.14-1.67-8.5-3.66-10.94-7.6c-0.08-0.13-0.29-0.02-0.26,0.12
	c0.4,2.29,1.71,4.35,3.69,5.59c2.14,1.34,4.74,1.63,7.1,2.41c4.73,1.56,9.07,4.48,11.79,8.69c0.08,0.45,0.16,0.89,0.23,1.34
	c-1.91-3.03-4.52-5.53-7.69-7.23c-3.66-1.95-8.04-2.53-11.38-5.07c-0.11-0.08-0.22,0.06-0.15,0.16c2.26,3.33,6.76,3.62,10.12,5.26
	c2.07,1.01,3.97,2.4,5.59,4.04c1.59,1.62,2.74,3.48,3.87,5.44c0.02,0.03,0.04,0.03,0.07,0.02c0.26,1.74,0.48,3.49,0.66,5.24
	c-1.5-1.34-3-2.69-4.49-4.03c-1.45-1.3-2.92-2.58-3.46-4.52c-0.03-0.09-0.17-0.08-0.15,0.02c0.27,1.69,1.48,2.95,2.7,4.07
	c0.88,0.81,1.77,1.61,2.66,2.41c-1.17-0.87-2.32-1.75-3.43-2.68c-1.86-1.55-3.52-3.39-4.33-5.72c-0.01-0.03-0.07-0.02-0.06,0.02
	c0.55,2.23,1.97,3.94,3.65,5.45c2.12,1.9,4.49,3.54,6.76,5.25c0.07,0.05,0.14,0.04,0.19-0.01c0.03,0.31,0.06,0.63,0.09,0.94
	c-2-1.35-3.92-2.79-5.71-4.42c-1.83-1.67-3.59-3.48-4.57-5.79c-0.03-0.07-0.12-0.02-0.1,0.04c0.72,2.23,2.34,3.93,4.01,5.51
	c1.92,1.81,4.02,3.46,6.29,4.81c0.03,0.02,0.06,0.02,0.09,0c0.03,0.3,0.06,0.6,0.08,0.9c-4.97-3.25-9.23-7.62-12.45-12.6
	c-0.03-0.05-0.12-0.01-0.11,0.04c-0.05-0.1-0.11-0.2-0.16-0.3c-0.05-0.1-0.23-0.06-0.2,0.06c1.18,4.63,4.72,7.88,8.4,10.82
	c-1.63-0.97-3.34-1.81-5.15-2.52c-0.06-0.02-0.11,0.02-0.11,0.07c-1.04-1.13-1.99-2.34-2.85-3.64c-0.05-0.08-0.16,0-0.13,0.08
	c2,5,6.09,8.34,10.77,10.78c0.02,0.01,0.04,0.01,0.05,0c0.15,0.12,0.31,0.24,0.46,0.35c-4.33-2.25-8.45-5.35-11.78-8.87
	c-0.11-0.12-0.28,0.02-0.2,0.16c2.98,4.66,7.85,8.06,12.79,10.49c-1.63-0.35-3.01-1.13-4.5-2c-1.56-0.92-3.2-1.67-4.9-2.3
	c-0.1-0.04-0.19,0.11-0.1,0.17c2.77,1.73,5.5,3.49,8.54,4.71c-3.85-0.41-7.5-2.01-10.39-4.61c-0.1-0.09-0.29,0.05-0.21,0.17
	c1.23,2.01,3.17,3.34,5.31,4.23c1.28,0.53,2.6,0.94,3.94,1.31c1.08,0.3,2.18,0.6,3.31,0.6c-0.01,0-0.02,0-0.03,0
	c-3.78,1.25-8.86-1.38-12.02,1.81c-0.11,0.11,0.04,0.3,0.16,0.19c3.31-2.98,8.11-0.43,11.93-1.84c0.01,0,0.02-0.01,0.03-0.02
	c0,0.01,0,0.01,0,0.02c-2.18,1.04-4.36,2.28-6.83,2.23c-0.14,0-0.17,0.21-0.03,0.22c2.21,0.24,4.31-0.81,6.24-1.87
	c-0.55,0.64-1.14,1.68-1.24,1.87c-0.89,1.77-1.38,3.82-1.63,5.78c-0.02,0.14,0.2,0.2,0.24,0.06c0.37-1.36,0.62-2.76,1.08-4.1
	c0.1-0.31,1.25-2.99,1.98-3.73c-0.7,1.26-1.06,2.7-1.07,4.14c0,0.17,0.25,0.21,0.27,0.03c0.1-1.45,0.43-2.77,1-4.09
	c0.1,7.39-0.55,14.76-1.79,22.05c-0.05-0.02-0.1-0.01-0.12,0.05c-0.05,0.13-0.07,0.28-0.08,0.43c0,0.01-0.01,0.01-0.01,0.01
	c-0.18,0.35-0.23,0.77-0.32,1.15c-0.04,0.17,0.14,0.28,0.28,0.27c0.33-0.02,0.63-0.08,0.92-0.17c0.71,0.13,1.25-0.46,1.66-0.97
	c0.02-0.02,0.02-0.05,0.02-0.07c0.03-0.03,0.06-0.06,0.1-0.09c0.09-0.09-0.07-0.24-0.16-0.15c-0.51,0.43-1.11,0.72-1.76,0.86
	c-0.21-0.12-0.3-0.34-0.35-0.6c0-0.04,0.01-0.08,0.01-0.12c0-0.05-0.02-0.1-0.04-0.13c0.02-0.02,0.03-0.03,0.03-0.06
	c1.59-7.53,2.17-15.26,1.99-22.96c0.05-0.03,0.11-0.06,0.16-0.09c0.1-0.05,0.03-0.21-0.07-0.16c-0.03,0.01-0.06,0.03-0.09,0.04
	c-0.05-1.91-0.14-3.81-0.28-5.71c-0.3-4.17-0.82-8.32-1.55-12.43c0.02-0.02,0.03-0.05,0.01-0.09c-0.01-0.02-0.03-0.04-0.04-0.07
	c-0.26-1.45-0.54-2.9-0.85-4.35c0.04-0.01,0.08-0.07,0.04-0.11c-0.03-0.03-0.05-0.05-0.08-0.08c-0.67-3.1-1.45-6.17-2.34-9.21
	c0.03,0.01,0.06,0.02,0.09,0.04c0.2,0.08,0.32-0.23,0.12-0.31c-0.11-0.04-0.22-0.09-0.34-0.13c-0.05-0.18-0.11-0.35-0.16-0.53
	c0.07-0.03,0.09-0.14,0-0.17c-0.02-0.01-0.04-0.02-0.06-0.02c-2.13-7.07-4.85-13.96-8.08-20.59c0,0,0,0,0,0
	c0.07,0.02,0.11-0.08,0.04-0.1c-0.04-0.01-0.08-0.03-0.11-0.04c-0.14-0.28-0.28-0.56-0.41-0.84c0.25,0.05,0.39-0.32,0.14-0.39
	c-0.13-0.04-0.26-0.07-0.39-0.11c-0.02-0.04-0.04-0.09-0.07-0.13c-3.94-7.83-8.72-15.18-13.45-22.55c-0.95-1.48-1.88-2.96-2.81-4.44
	c0.03-0.03,0.03-0.09-0.02-0.11c-0.02-0.01-0.04-0.01-0.06-0.02c-3.63-5.87-7.03-11.84-10-18.09c0,0,0.01,0,0.01,0
	c4.28,8.36,9.49,16.21,14.68,24.02c1.4,2.11,2.81,4.22,4.2,6.34c0,0.04,0,0.08,0,0.11c0,0.07,0.07,0.09,0.11,0.06
	c3.45,5.25,6.82,10.56,9.86,16.07c1.49,2.69,2.87,5.43,4.16,8.21c-0.01,0.01-0.01,0.03-0.02,0.04c-0.04,0.08,0.04,0.16,0.1,0.14
	c2.42,5.27,4.46,10.71,6.02,16.32c0.15,0.53,0.29,1.05,0.43,1.58c0,0.01-0.01,0.02-0.01,0.02c-0.01,0.02,0.01,0.03,0.03,0.02
	c2.09,7.97,3.3,16.18,3.58,24.41c0.03,0.95,0.05,1.89,0.05,2.84c-0.03,0.01-0.06,0.04-0.05,0.09c0.01,0.04,0.03,0.08,0.05,0.12
	c0,0.02,0,0.04,0,0.06c0,0,0,0,0,0c-0.04,0.03-0.03,0.08,0,0.1c0.01,7.9-0.92,15.7-2.28,23.49c-0.01,0.04,0.06,0.06,0.07,0.02
	c1.92-7.51,2.66-15.38,2.62-23.17c0.02,0.02,0.04,0.04,0.05,0.06c0.36,0.45,0.68,0.93,0.96,1.44c0.5,0.91,0.87,1.89,1.21,2.87
	c0.07,0.22,0.45,0.11,0.39-0.11c-0.31-1.14-0.74-2.23-1.38-3.24c-0.3-0.47-0.64-0.93-1.04-1.31c0,0-0.09-0.08-0.19-0.17
	c0-0.02,0-0.04,0-0.06c0.07-0.04,0.14-0.07,0.21-0.1c1.55,0.85,2.6,2.07,3.39,3.65c0.75,1.51,1.68,3.38,1.36,5.09
	c-0.04,0.23,0.29,0.25,0.35,0.04c0.47-1.86-0.62-4-1.47-5.61c-0.72-1.38-1.79-2.77-3.29-3.32c1.45-0.52,2.92-0.11,4.1,1.05
	c0.14,0.14,0.34-0.03,0.24-0.19c-0.74-1.16-2.05-1.64-3.29-1.47c0.23-0.13,0.46-0.27,0.69-0.42c2.65-0.79,5.55,0.08,8.3,0.83
	c0.12,0.03,0.2-0.14,0.07-0.19c-2.2-0.87-5-1.68-7.47-1.28c1.82-1.39,3.39-3.24,4.45-5.09c0.06-0.1-0.08-0.21-0.15-0.11
	c-1.02,1.46-2.14,2.84-3.48,4.02c-0.61,0.54-1.25,1.01-1.91,1.45c-0.39,0.13-0.76,0.3-1.11,0.51c0.91-1.4,2.02-2.61,3.24-3.78
	c0.1-0.09-0.02-0.25-0.13-0.17c-1.46,1.13-2.61,2.61-3.52,4.21c-0.04,0.03-0.08,0.06-0.12,0.09c0.67-2.5,2.07-4.47,4.11-6.08
	c1.62-1.28,3.46-2.42,4.38-4.35c0.03-0.07-0.08-0.14-0.12-0.07c-0.75,1.26-1.82,2.18-2.95,3.03c0.82-0.82,1.57-1.71,2.24-2.67
	c0.01-0.01-0.01-0.02-0.02-0.01c-0.92,1.28-1.98,2.4-3.16,3.38c-0.39,0.29-0.77,0.58-1.15,0.88c-0.9,0.65-1.87,1.22-2.88,1.73
	c-0.06,0.03-0.02,0.12,0.04,0.09c0.69-0.31,1.35-0.67,1.98-1.06c-1.47,1.45-2.49,3.33-2.83,5.38c0,0.01,0,0.02,0,0.03
	c-0.03,0.03-0.07,0.05-0.1,0.08c-0.02-1.73-0.08-3.46-0.17-5.18c-0.03-0.63-0.08-1.26-0.12-1.89c2.67-1.42,4.69-3.6,6.63-5.87
	c-1.65,2.63-3.85,4.88-6.48,6.56c-0.11,0.07,0.02,0.22,0.13,0.16c2.31-1.42,4.36-3.23,6.04-5.36c0.8-1.01,1.51-2.08,2.12-3.21
	c0.39-0.73,0.85-1.55,1.19-2.38c-0.03,0.09-0.05,0.19-0.08,0.28c-0.18,0.62-0.39,1.22-0.64,1.81c-0.56,1.35-1.28,2.62-2.14,3.79
	c-1.7,2.31-3.89,4.05-6.39,5.43c-0.07,0.04-0.06,0.13-0.01,0.17c-0.07,0.03-0.15,0.06-0.22,0.09c-0.09,0.03-0.05,0.19,0.05,0.16
	c2.01-0.53,3.79-2.17,5.27-3.55c1.62-1.51,2.99-3.21,4.26-5.02c0.1-0.14,0.32-0.66,0.17-0.3c-0.1,0.22-0.19,0.45-0.29,0.66
	c-0.28,0.6-0.61,1.18-0.96,1.75c-0.56,0.9-1.22,1.75-1.93,2.54c-1.51,1.67-3.27,3.02-5.12,4.28c-0.09,0.06,0.01,0.21,0.1,0.16
	c3.8-2.16,7.08-5.56,8.5-9.74c0.02-0.07-0.08-0.14-0.12-0.07c-1.19,1.94-2.74,3.69-4.39,5.25c-0.02,0.02-0.04,0.04-0.06,0.06
	c2.46-2.64,4.15-6.07,4.62-9.57c0.01-0.1-0.15-0.15-0.18-0.04c-0.86,3.29-2.77,6.35-5.2,8.87c0.97-1.12,1.83-2.35,2.54-3.68
	c0,0,0,0,0,0l0,0c0-0.01,0.01-0.01,0.01-0.02c0.06-0.11-0.11-0.18-0.17-0.1c-1.47,1.79-2.98,3.57-4.76,5.05
	c-0.4,0.33-0.81,0.66-1.25,0.95c-0.22,0.15-0.54,0.42-0.79,0.51c-0.47,0.18-0.06-0.11,0.11-0.33c0.78-0.95,1.54-1.91,2.3-2.88
	c3.16-3.99,6.4-7.93,9.5-11.97c0.06-0.08-0.06-0.16-0.12-0.09c-4.26,4.98-8.37,10.17-12.25,15.46c-0.11-1.49-0.25-2.98-0.42-4.47
	c0.59-0.31,1.17-0.67,1.72-1.07c-0.55,0.57-1.08,1.16-1.59,1.76c-0.05,0.06,0.04,0.14,0.09,0.09c1.96-1.71,3.72-3.69,5.53-5.55
	c0.58-0.59,1.15-1.18,1.69-1.8c-0.34,0.4-0.68,0.8-1.01,1.2c-2.06,2.48-4.16,4.94-6.14,7.49c-0.07,0.1,0.07,0.2,0.15,0.11
	c2.13-2.43,4.14-4.96,6.19-7.45c1.68-2.05,3.29-4.2,5.03-6.21c-1.06,1.55-2.13,3.09-3.19,4.65c-0.01,0.01-0.01,0.03-0.02,0.04
	c-0.94,1.05-1.87,2.11-2.8,3.16c-1.93,2.2-3.73,4.36-5.17,6.92c-0.06,0.11,0.11,0.2,0.15,0.08c1.08-2.71,3.43-4.87,5.35-6.99
	c2.19-2.43,4.37-4.87,6.47-7.37c0.06-0.07-0.05-0.14-0.11-0.08c-0.44,0.47-0.87,0.93-1.3,1.4c0.15-0.24,0.3-0.49,0.46-0.72
	c0.02-0.02-0.02-0.05-0.04-0.03c-0.31,0.44-0.66,0.88-0.96,1.33c-0.08,0.09-0.16,0.18-0.24,0.26c0.92-1.27,1.77-2.61,2.52-3.94
	c0.07-0.13-0.1-0.26-0.19-0.14c-0.75,1.03-1.56,2.04-2.38,3.02c1.07-1.97,1.57-4.24,1.25-6.46c-0.01-0.08-0.11-0.06-0.13,0
	c-0.79,3.25-1.53,6.52-3.74,9.14c-0.38,0.45-0.78,0.89-1.18,1.32c0.24-0.31,0.47-0.62,0.7-0.93c1.97-2.74,3.4-5.87,4.1-9.16
	c0.01-0.06-0.09-0.09-0.11-0.03c-0.02,0.06-0.03,0.12-0.05,0.17c-0.03-0.05-0.11-0.06-0.15,0c-1.37,2.9-2.99,5.65-4.88,8.23
	c-1.84,2.52-4.01,4.66-6.11,6.95c-0.02-0.19-0.05-0.39-0.07-0.58c3.1-4.19,6.29-8.27,9.75-12.18c0.05-0.06-0.04-0.13-0.09-0.09
	c-0.95,0.73-1.84,1.5-2.7,2.31c1.76-2.27,3.24-4.71,3.89-7.47c0.03-0.12-0.14-0.13-0.19-0.05c-0.06,0.12-0.13,0.24-0.2,0.36
	c0.18-0.74,0.25-1.49,0.22-2.28c0-0.12-0.19-0.13-0.23-0.03c-2.02,5.2-5.15,10.03-9.14,13.95c3.99-4.52,7.73-9.36,8.92-15.41
	c0.02-0.12-0.15-0.15-0.2-0.05c-2.38,5.08-4.93,10.22-8.75,14.39c-0.31,0.34-0.7,0.67-1.06,1.02c0.07-0.09,0.13-0.18,0.2-0.27
	c0.95-1.24,1.88-2.5,2.77-3.78c1.79-2.56,3.49-5.18,5.06-7.88c0.07-0.11-0.07-0.28-0.18-0.17c-2.11,2.09-3.88,4.48-5.43,7.02
	c-0.65,1.07-1.25,2.16-1.85,3.26c-0.12,0.23-0.25,0.46-0.37,0.69c0.15-0.33,0.3-0.66,0.47-0.98c1.22-2.33,2.77-4.47,4.08-6.75
	c1.2-2.09,2.12-4.27,2.52-6.66c0.44-2.63,0.32-5.31,0.06-7.95c0-0.02-0.01-0.04-0.03-0.04c0.07-1.67-0.07-3.34-0.54-4.95
	c0.01-0.04,0.02-0.09,0.02-0.13c0.01-0.09-0.12-0.1-0.14-0.02c0,0.01,0,0.02-0.01,0.03c-0.05,0-0.09,0.02-0.09,0.09
	c0,0.11,0,0.22,0,0.34c-0.66,3.13-1.39,6.24-2.27,9.32c-1.94,4.06-3.56,8.26-6.64,11.61c4.82-5.87,7.5-13.41,7.29-21.02
	c0,0,0-0.01,0-0.01c0.04-0.25,0.09-0.5,0.13-0.75c0.28-1.67,0.51-3.38,0.13-5.05c-0.03-0.12-0.22-0.13-0.23,0
	c-0.03,1.39-0.13,2.78-0.3,4.17c0.24-2.65,0.24-5.31-0.01-7.91c-0.01-0.1-0.1-0.13-0.18-0.11c-0.09-1.49-0.45-2.94-1.07-4.32
	c-0.03-0.07-0.09-0.08-0.15-0.06c-0.1-1.01-0.4-1.97-0.88-2.88c-0.06-0.11-0.23-0.07-0.22,0.06c0.73,5.91,0.75,11.79-0.25,17.67
	c-0.51,2.99-1.24,5.94-2.21,8.81c-0.83,2.47-1.77,5-3.42,7.05c-0.09-0.32-0.19-0.63-0.28-0.95c0.02-0.01,0.04-0.01,0.05-0.03
	c1.96-2.29,3.27-5.29,4.21-8.13c0.93-2.84,1.48-5.8,1.73-8.77c0.56-6.63-0.39-13.18-1.29-19.73c0.6,1.5,1.27,2.99,1.94,4.46
	c0.03,0.07,0.14,0.02,0.11-0.05c-0.69-1.96-1.41-3.93-2.25-5.83c-0.07-0.17-0.34-0.09-0.31,0.09c1.1,6.81,2.07,13.81,1.54,20.71
	c-0.23,3.05-0.78,6.09-1.74,9.01c-0.96,2.93-2.41,5.47-4.06,8.04c-0.01-0.02-0.01-0.04-0.02-0.06c-0.12-0.39-0.24-0.77-0.36-1.16
	c0.94-0.92,1.59-2.21,2.2-3.37c0.69-1.31,1.26-2.68,1.74-4.08c0.94-2.74,1.5-5.59,1.79-8.46c0.68-6.82-0.28-13.63-1.16-20.39
	c-0.02-0.14-0.23-0.11-0.22,0.03c0.24,1.83,0.47,3.66,0.67,5.5c-0.33-2.85-0.93-5.67-1.79-8.41c0.01-0.02,0.02-0.04,0.01-0.06
	c-0.33-1.08-0.92-2.11-1.61-3.05c-0.32-0.44-0.67-0.85-1.04-1.24c-0.08-0.08-0.16-0.17-0.24-0.25c-0.01-0.01-0.02-0.01-0.03-0.02
	c-0.02-0.03-0.03-0.06-0.05-0.09c-0.04-0.08-0.17-0.03-0.13,0.06c0.01,0.03,0.02,0.05,0.04,0.08c-0.01,0.03-0.01,0.06,0.02,0.09
	c0.02,0.02,0.04,0.04,0.06,0.07c0.35,0.76,0.68,1.53,1,2.31c1.61,5.62,2.2,11.45,1.64,17.29c-0.59,6.15-2.49,11.88-5.24,17.37
	c-0.08-0.21-0.17-0.43-0.25-0.64c1.5-2.33,2.53-5.08,3.33-7.72c1.44-4.7,2.07-9.62,1.9-14.53c-0.17-4.87-1.07-10.08-3.09-14.55
	c-0.07-0.17-0.31-0.05-0.25,0.11c0.3,0.89,0.6,1.77,0.88,2.65c-0.57-1.61-1.44-3.08-2.77-4.14c-0.07-0.06-0.18-0.03-0.23,0.03
	c0-0.01-0.01-0.02-0.01-0.04c-0.02-0.06-0.07-0.08-0.12-0.08c-1.15-2.82-2.73-5.5-4.43-8c-0.08-0.12-0.28,0-0.22,0.13
	c0.49,1.05,0.98,2.1,1.47,3.17c-0.07,0.04-0.11,0.12-0.08,0.21c1.84,5.65,2.8,11.49,2.73,17.44c-0.06,5.82-1.22,11.38-2.83,16.94
	c-0.18-0.37-0.37-0.74-0.56-1.11c2.2-5.94,3.1-12.3,2.91-18.62c-0.19-6.33-1.38-13.11-4.13-18.87c-0.03-0.06-0.08-0.09-0.13-0.09
	c-0.03-0.09-0.06-0.18-0.09-0.27c-0.05-0.15-0.23-0.13-0.3-0.03c-0.11-0.08-0.33,0.01-0.29,0.17c0.27,1.09,0.53,2.17,0.79,3.25
	c0,0.01,0,0.01,0,0.02c-0.01,0.89,0.02,1.77,0.07,2.66c-0.56-3.53-2.19-7-4.12-9.85c-0.09-0.13-0.26,0.01-0.22,0.13
	c0.28,0.81,0.54,1.62,0.79,2.43c-0.02,2.29,0.29,4.6,0.31,6.9c0.03,2.33-0.03,4.66-0.18,6.99c-0.29,4.65-1.13,9.19-1.76,13.8
	c-0.29-0.48-0.58-0.95-0.87-1.43c1.44-4.57,2.21-9.37,2.49-14.15c0.27-4.77,0.17-9.78-0.84-14.46c-0.04-0.17-0.29-0.13-0.27,0.04
	c0.54,4.86,0.96,9.64,0.67,14.54c-0.28,4.66-1.1,9.23-2.22,13.76c-0.07-0.11-0.14-0.22-0.21-0.33c0.81-6.11,0.16-12.21-0.72-18.28
	c-0.85-5.82-1.65-11.78-4.83-16.86c0,0,0,0,0,0l0,0c-0.01-0.01-0.01-0.02-0.02-0.03c-0.09-0.15-0.28,0.01-0.24,0.15
	c0.12,0.39,0.25,0.78,0.37,1.17c-0.41-0.63-0.89-1.21-1.44-1.73c-0.12-0.12-0.33-0.01-0.26,0.16c0.1,0.27,0.2,0.54,0.3,0.82
	c-0.58-0.93-1.28-1.77-2.09-2.53c-0.06-0.05-0.12-0.05-0.18-0.03c-0.31-0.51-0.76-0.9-1.4-0.98c-0.05-0.01-0.09,0.01-0.13,0.03
	c-0.18-0.29-0.38-0.56-0.59-0.83c-0.01-0.01-0.02-0.02-0.03-0.03c0-0.02,0-0.03,0-0.05c-0.03-0.22-0.3-0.21-0.38-0.06
	c-0.12-0.61-0.27-1.22-0.45-1.81c-0.06-0.2-0.38-0.13-0.4,0.06c-0.04,0.44-0.08,0.88-0.12,1.32c-0.12-0.68-0.38-1.34-0.72-1.94
	c-0.08-0.13-0.3-0.13-0.31,0.05c0,0.04-0.01,0.08-0.01,0.12c-0.1-0.06-0.26-0.03-0.29,0.12c-0.08,0.42-0.15,0.84-0.22,1.27
	c0.05-0.81,0.1-1.62,0.14-2.43c0.01-0.18-0.24-0.21-0.28-0.03c-0.64,2.97-1.28,5.94-1.91,8.9c-0.3,1.42-0.58,2.85-0.85,4.28
	c-0.06,0.31-0.12,0.62-0.18,0.93c0-0.03,0-0.06,0-0.07c0.03-0.32,0.07-0.65,0.11-0.97c0.66-5.17,2.39-10.25,1.75-15.52
	c-0.02-0.17-0.3-0.17-0.31,0.01c-0.21,4.94-0.53,9.85-2.2,14.51c1.11-4.79,1.81-9.67,2.06-14.58c0.01-0.17-0.15-0.23-0.26-0.16
	c-0.02-0.2-0.06-0.4-0.11-0.61c-0.05-0.19-0.31-0.2-0.35,0.01c-0.06,0.31-0.11,0.63-0.17,0.95c-0.05-0.45-0.11-0.9-0.18-1.35
	C64.77,9,64.5,9,64.47,9.19c-0.03,0.27-0.07,0.53-0.1,0.8c0.01-0.47,0.02-0.93,0.01-1.4c0-0.23-0.33-0.28-0.36-0.04
	c-0.55,3.96-1.35,7.9-2.4,11.76c0.91-4.28,2.44-8.5,1.85-12.92c-0.02-0.18-0.3-0.17-0.32,0.01c-0.51,4.15-1.4,8.27-2.64,12.27
	c0.56-3.78,1.69-7.47,1.72-11.31c0-0.23-0.36-0.28-0.36-0.04c-0.02,4.3-1.42,8.42-1.84,12.68c-0.22-0.4-0.45-0.8-0.66-1.2
	c0.7-2.12,1.18-4.34,1.61-6.53c0.23-1.2,0.44-2.4,0.6-3.61c0.11-0.82,0.22-1.6-0.17-2.36c-0.06-0.11-0.21-0.11-0.27,0.01
	c-0.01,0.02-0.02,0.05-0.03,0.07c-0.02-0.15-0.22-0.24-0.32-0.09c-1.52,2.14-2.54,4.58-2.95,7.14c0.16-2.73,0.76-5.42,1.47-8.08
	c0.06-0.23-0.27-0.38-0.36-0.14c-0.77,2.07-1.29,4.17-1.56,6.31c0.14-2.97,0.54-5.92,0.9-8.87c0.02-0.2-0.29-0.28-0.34-0.09
	c0,0.01-0.01,0.03-0.01,0.04l0,0c0,0,0,0,0,0c-0.45,1.74-0.77,3.49-0.96,5.25c-0.37-2.94-0.89-5.87-1.64-8.73
	c-0.05-0.2-0.35-0.17-0.33,0.05c0.1,1.14,0.21,2.28,0.33,3.42c-0.44-1.22-1.03-2.52-2.18-3.21c-0.12-0.07-0.29,0.01-0.26,0.16
	c0.09,0.53,0.16,1.06,0.24,1.58c-0.38-0.61-0.88-1.27-1.37-1.26c-0.39,0.01-0.54,0.31-0.58,0.63c-0.45-0.32-0.96-0.55-1.54-0.63
	c-0.17-0.03-0.22,0.17-0.13,0.28c-0.2-0.05-0.4-0.09-0.61-0.1c-0.1,0-0.22,0.08-0.19,0.19c0.07,0.27,0.15,0.54,0.25,0.79
	c-0.31-0.16-0.63-0.29-0.98-0.38c-0.15-0.04-0.32,0.12-0.2,0.27c0.13,0.15,0.25,0.3,0.38,0.45c0.3,1.63,0.98,3.27,1.61,4.8
	c0.65,1.57,1.42,3.09,2.27,4.56c1.71,2.95,3.8,5.67,6.26,8.03c0.16,0.35,0.32,0.7,0.48,1.05c-2.49-2.49-4.8-5.1-6.68-8.09
	c-0.77-1.22-1.44-2.47-2.05-3.76c0.03-0.05,0.03-0.12-0.03-0.17c-0.03-0.03-0.07-0.07-0.1-0.1c-0.78-1.67-1.46-3.4-2.07-5.16
	c0.39,0.5,0.65,1.07,0.85,1.7c0.03,0.1,0.2,0.05,0.18-0.05c-0.18-0.92-0.64-1.67-1.28-2.35c-0.09-0.1-0.3-0.04-0.26,0.11
	c0.4,1.6,0.97,3.18,1.64,4.71c-0.42-0.53-0.8-1.09-1.14-1.69c-0.08-0.14-0.33-0.09-0.29,0.09c0.64,3.07,2.32,5.9,4.24,8.34
	c1.88,2.38,4.09,4.58,6.46,6.5c-1.08-0.44-2.13-1.31-3.04-1.95c-0.95-0.67-1.89-1.38-2.79-2.12c-1.96-1.61-3.76-3.39-5.43-5.3
	c-0.16-0.18-0.4,0-0.34,0.21c0.43,1.36,1.44,2.6,2.31,3.71c0.24,0.31,0.49,0.61,0.75,0.9c-1.07-0.98-2.14-1.96-3.21-2.94
	c-0.09-0.09-0.28-0.01-0.28,0.12c0,0.47,0.09,0.93,0.24,1.38c-0.14-0.09-0.28-0.17-0.43-0.25c-0.09-0.05-0.23,0.04-0.24,0.14
	c-0.01,0.31,0.06,0.61,0.18,0.9c-0.08-0.01-0.17,0.08-0.14,0.18c0.28,0.92,0.7,1.78,1.22,2.57c-0.07,0.03-0.11,0.11-0.08,0.19
	c1.18,2.71,4.09,4.89,6.55,6.34c2.91,1.71,6.2,3.01,9.45,3.9c0.05,0.08,0.1,0.16,0.14,0.24c-5.84-2.05-12.28-2.77-17.37-6.54
	c-0.19-0.14-0.39,0.11-0.27,0.28c0.28,0.42,0.6,0.79,0.95,1.14c-0.12-0.01-0.26,0-0.4,0.03c-0.11,0.02-0.13,0.15-0.05,0.22
	c0.68,0.62,1.37,1.22,2.08,1.79c-0.73-0.21-1.46-0.41-2.17-0.66c-0.11-0.04-0.26,0.08-0.19,0.2c0.07,0.13,0.16,0.26,0.24,0.38
	c-0.09,0-0.19,0.09-0.14,0.2c0.82,1.93,2.57,3.1,4.27,4.2c1.91,1.23,3.9,2.35,5.92,3.38c4.15,2.11,8.58,3.95,13.11,5.06
	c0,0,0.01,0,0.01,0c0.19,0.3,0.38,0.59,0.57,0.89c-4.35-1.67-8.7-3.33-12.95-5.26C53,32.74,48.27,31,46.11,27.21
	c-0.08-0.14-0.3-0.04-0.22,0.1c0.13,0.25,0.27,0.48,0.42,0.71c-0.1,0.01-0.2,0.11-0.14,0.24c0.85,1.89,2.81,2.88,4.51,3.88
	c1.99,1.19,4.03,2.3,6.1,3.34c4.34,2.17,8.9,4.1,13.56,5.48c0.06,0.02,0.12-0.02,0.14-0.07c0.17,0.26,0.33,0.52,0.5,0.77
	c-4.55-1.36-8.99-2.95-13.25-5.06c-2.24-1.11-4.42-2.35-6.54-3.67c-1.87-1.17-5-2.67-5.1-5.19c-0.01-0.14-0.24-0.13-0.24,0
	c-0.01,2.28,2.21,3.6,3.88,4.73c0.52,0.35,1.05,0.69,1.58,1.03c-1.99-0.96-3.86-2.06-5.61-3.49c-0.11-0.09-0.24,0.04-0.2,0.16
	c0.17,0.42,0.34,0.84,0.55,1.24c-0.05,0.03-0.09,0.09-0.05,0.17c0.15,0.34,0.29,0.69,0.44,1.03c-0.12-0.02-0.22,0.09-0.2,0.19
	c0,0.01,0,0.02,0,0.04c0.07,0.57,0.24,1.04,0.58,1.47c-0.03-0.02-0.07-0.04-0.1-0.06c-0.14-0.08-0.32,0.04-0.25,0.2
	c0.17,0.39,0.32,0.79,0.49,1.18c-0.03-0.02-0.07-0.04-0.1-0.05c-0.09-0.05-0.17,0.1-0.09,0.16c0.12,0.09,0.24,0.17,0.36,0.26
	c0.03,0.06,0.06,0.12,0.09,0.18c-0.19-0.14-0.39-0.27-0.58-0.41c-0.1-0.07-0.29,0.01-0.25,0.15c0.21,0.78,0.48,1.54,0.83,2.26
	c-0.07,0.03-0.11,0.12-0.03,0.18c0.06,0.05,0.13,0.09,0.19,0.14c0.04,0.08,0.08,0.15,0.13,0.23c-0.2-0.12-0.39-0.24-0.59-0.35
	c-0.14-0.08-0.29,0.11-0.15,0.21c5.16,3.75,10.72,7.13,16.27,10.25c5.4,3.04,11.06,5.85,17.03,7.57c0.21,0.37,0.43,0.74,0.64,1.12
	c-1.88-0.5-3.75-1.08-5.58-1.77c-1.98-0.75-3.83-1.75-5.77-2.59c-0.05-0.02-0.09-0.02-0.13,0c-7.82-4.09-15.46-8.5-22.11-14.29
	c-0.08-0.07-0.19-0.01-0.22,0.08c-0.11-0.1-0.21-0.2-0.32-0.3c-0.14-0.14-0.39,0.05-0.24,0.2c2.19,2.27,4.56,4.37,7.01,6.36
	c4.47,3.64,9.25,6.9,14.3,9.7C72.45,57.55,77.57,60.02,82.89,61.53z M55.95,18.4c-1.29-1.26-2.54-2.55-3.67-3.97
	c-1.8-2.24-3.17-4.66-4.09-7.35c0.36,0.5,0.74,0.98,1.17,1.43c0.68,1.45,1.46,2.85,2.29,4.19C52.91,14.71,54.33,16.65,55.95,18.4z
	 M108.38,98.97c0.63-0.76,1.2-1.56,1.65-2.47c0.93-1.84,1.44-3.87,1.83-5.88c0.02-0.11,0.09-0.91,0.08-0.45
	c0,0.26-0.02,0.53-0.03,0.79c-0.02,0.58-0.08,1.17-0.17,1.74c-0.2,1.21-0.6,2.34-1.14,3.44c-0.04,0.08,0.04,0.12,0.11,0.1
	C109.94,97.16,109.16,98.07,108.38,98.97z M104.9,62.55c-0.17,2.01-0.38,4.03-0.65,6.03c0.36-3.54,0.33-7.11-0.11-10.63
	C104.74,59.42,104.98,60.96,104.9,62.55z M110.46,88.46c-2.8,4.89-6.41,9.34-10.47,13.24c-0.06-0.42-0.14-0.84-0.21-1.26
	c4.83-4.13,7.8-9.94,10.46-15.62c-1.52,6.22-5.97,11.3-10.09,16c-0.08,0.09,0.06,0.21,0.14,0.14c4.63-4.14,8.23-9.13,10.57-14.88
	C110.84,86.88,110.7,87.68,110.46,88.46z M100.38,104.55c-0.11-0.87-0.23-1.74-0.36-2.6c4.03-3.77,7.39-8.07,10.21-12.77
	c0.03,0.05,0.12,0.06,0.15-0.01c0.1-0.23,0.19-0.47,0.27-0.71c0.05-0.09,0.11-0.18,0.16-0.27c-1.28,3.79-4.02,6.98-6.66,10.03
	c-0.57,0.64-1.13,1.3-1.68,1.96c-0.12,0.14-0.24,0.28-0.35,0.42c-0.1,0.12,0.09,0.25,0.19,0.14c1.37-1.59,2.88-3.2,4.28-4.9
	c0.11-0.11,0.21-0.22,0.32-0.33c0.78-0.79,1.59-1.55,2.45-2.25c0.02-0.02,0.04-0.03,0.06-0.05c-0.02,0.02-0.05,0.05-0.07,0.07
	c-0.29,0.3-0.57,0.59-0.85,0.9C105.52,97.4,102.74,100.86,100.38,104.55z M99.37,98.13c0.03,0,0.06-0.02,0.09-0.05
	c4.16-5.28,6.84-11.48,7.87-18.05c0.27-1.16,0.47-2.35,0.56-3.53c0.21,4.26-0.03,8.45-1.97,12.35c-1.76,3.53-4.16,6.64-5.62,10.32
	c-0.02,0.05,0.05,0.09,0.08,0.04c2.21-3.86,4.42-7.85,7.52-11.08c-2.54,4.14-5.24,8.16-8.16,12.03
	C99.62,99.49,99.5,98.81,99.37,98.13z M100.55,96.15c1.99-3.57,3.87-7.2,5.25-11.06c0.29-0.8,0.57-1.62,0.82-2.46
	C105.44,87.46,103.37,92.07,100.55,96.15z M100.53,105.78c-0.01-0.1-0.02-0.19-0.03-0.29c0.02,0.01,0.03,0.01,0.05,0
	c2.46-1.9,4.55-4.5,6.36-7c1.83-2.53,3.38-5.25,4.65-8.09c-0.93,3.08-2.3,6-4.17,8.63c-1,1.41-2.13,2.73-3.39,3.93
	C102.92,103.99,101.7,104.83,100.53,105.78z M98.59,94.35c0.01,0,0.03-0.01,0.05-0.02c2.95-2.65,4.32-6.61,5.52-10.28
	c1.28-3.88,2.32-7.83,3.02-11.85c-0.08,4.12-0.71,8.21-1.94,12.15c-1.38,4.42-3.51,8.44-6.09,12.27c-0.07,0.1,0.08,0.21,0.16,0.11
	c5.38-6.97,8.14-16.11,8.1-24.88c0.81,4.5-0.46,9.22-2,13.44c-1.59,4.36-3.76,8.52-6.09,12.54c-0.16-0.85-0.34-1.69-0.52-2.54
	c4.91-5.61,7.97-13.19,8.09-20.66c0-0.08-0.12-0.1-0.12-0.01c-0.63,7.54-3.28,14.48-8.03,20.38C98.68,94.77,98.64,94.56,98.59,94.35
	z M98.15,92.44c1.74-1.31,2.89-3.32,3.86-5.23c0.82-1.6,1.63-3.23,2.35-4.9c-0.13,0.43-0.26,0.85-0.4,1.27
	c-1.23,3.81-2.62,7.59-5.42,10.54C98.42,93.57,98.28,93.01,98.15,92.44z M97.57,90.17c0.03-0.05,0.06-0.1,0.1-0.15
	c0.02,0,0.03,0,0.04-0.01c0.53-0.78,1.04-1.59,1.52-2.4c2.95-4.63,4.87-10,5.72-15.49c0.35-1.91,0.59-3.84,0.77-5.8
	c0.06,0.78,0.04,1.56-0.04,2.35c-0.01-0.01-0.04-0.01-0.04,0.01c-0.15,1.09-0.31,2.18-0.5,3.26c-0.04,0.18-0.07,0.36-0.11,0.54
	c-0.46,2.25-1.05,4.47-1.76,6.65c-1.37,4.24-3.25,8.27-5.4,12.17c-0.03,0.05,0.05,0.09,0.08,0.04c0.1-0.16,0.21-0.31,0.31-0.47
	c0.22-0.23,0.39-0.55,0.56-0.88c3.36-5.43,5.78-11.65,6.59-18.01c-0.27,7.29-2.79,14.37-7.35,20.09
	C97.9,91.43,97.74,90.8,97.57,90.17z M97.35,89.33c5.46-7.57,6.91-16.87,7.76-25.97c0.21,4.44-0.26,8.9-1.44,13.19
	c-1.31,4.79-3.48,9.1-6.21,13.22C97.43,89.62,97.39,89.47,97.35,89.33z M99.41,85.63c-0.48,0.95-1.01,1.87-1.59,2.77
	c0.16-0.3,0.3-0.62,0.45-0.92c1.03-2.02,2.02-4.06,2.86-6.16c0.73-1.82,1.34-3.69,1.83-5.59C102.15,79.14,101.02,82.49,99.41,85.63z
	 M96.97,87.97c1.78-1.93,2.73-4.38,3.57-6.84c0.97-2.84,1.72-5.77,2.23-8.73c0.98-5.7,1.17-11.69,0.34-17.44
	c0.38,0.94,0.55,1.91,0.58,2.95c0,0.09,0.13,0.11,0.18,0.05c0.56,5.21,0.38,10.46-0.69,15.61c-1.14,5.47-3.32,10.6-5.89,15.54
	C97.19,88.73,97.08,88.35,96.97,87.97z M101.48,57.92c-0.04-0.76-0.09-1.53-0.16-2.29c0.08,0.75,0.15,1.5,0.21,2.25
	C101.51,57.89,101.49,57.9,101.48,57.92z M100.51,52.04c-0.67-3.14-1.74-6.19-3.19-9.01c-0.03-0.1-0.07-0.19-0.1-0.29
	c0.76,1.04,1.38,2.13,2.01,3.29C99.76,48.01,100.19,50.02,100.51,52.04z M95.81,84.2c2.43-3.78,4.06-8.12,5.05-12.48
	c0.45-1.96,0.76-3.94,0.93-5.94c-0.03,1.11-0.09,2.21-0.19,3.31c-0.27,2.9-0.82,5.78-1.74,8.54c-0.45,1.35-1,2.68-1.64,3.95
	c-0.62,1.24-1.47,2.35-2.09,3.57C96.02,84.83,95.91,84.51,95.81,84.2z M95.35,82.85c2.22-2.19,3.22-5.54,4.1-8.45
	c0.93-3.09,1.55-6.27,1.86-9.48c0.12-1.24,0.19-2.48,0.22-3.73c0.03,1.21,0.05,2.42-0.04,3.64c-0.14,2.19-0.46,4.37-0.93,6.51
	c-0.98,4.43-2.71,8.55-4.85,12.53C95.59,83.55,95.47,83.2,95.35,82.85z M94.37,80.12c1.6-2.37,2.71-5.18,3.6-7.88
	c0.93-2.82,1.58-5.72,1.93-8.67c0.36-2.94,0.43-5.92,0.21-8.88c-0.11-1.49-0.27-3.03-0.54-4.55c1.14,4.02,1.74,8.16,1.51,12.45
	c0,0.04,0,0.07-0.01,0.11c-0.37,6.72-2.65,12.83-6.26,18.47c-0.04,0.06,0.05,0.12,0.09,0.07c1.78-2.31,3.11-5,4.13-7.71
	c0.43-1.15,0.8-2.33,1.11-3.53c-0.27,1.34-0.59,2.66-0.97,3.97c-0.86,2.98-1.87,6.25-3.91,8.66C94.98,81.78,94.68,80.95,94.37,80.12
	z M93.93,78.97c1.38-2.3,2.46-4.81,3.31-7.35c2.74-8.13,3.16-17.15,1.01-25.48c0.06,0.17,0.13,0.35,0.2,0.52
	c0.56,2.7,1.17,5.32,1.37,8.09c0.21,2.93,0.14,5.88-0.22,8.79c-0.36,2.91-1.01,5.79-1.93,8.58c-0.9,2.72-2.16,5.22-3.37,7.79
	C94.18,79.6,94.05,79.28,93.93,78.97z M90.77,36.74c0.26,0.58,0.51,1.16,0.76,1.74c0.11,0.83,0.23,1.66,0.35,2.49
	C91.57,39.54,91.2,38.13,90.77,36.74z M91.65,37.31c-0.09-0.1-0.29-0.04-0.27,0.12c0,0,0,0,0,0c-0.58-1.28-1.18-2.56-1.78-3.84
	C90.35,34.8,91.02,36.04,91.65,37.31z M97.06,49.29c0.15,1.78,0.18,3.58,0.14,5.37c-0.04-2.49-0.31-4.98-0.86-7.4
	c-0.1-0.62-0.22-1.24-0.35-1.85c-0.02-0.08-0.1-0.11-0.16-0.09c-0.45-1.53-1.03-3.03-1.74-4.46C96.16,43.07,96.81,46.36,97.06,49.29
	z M93.11,76.92c3.23-5.52,4.04-12.04,4.3-18.33c0.14-3.45,0.3-6.98-0.13-10.41c-0.11-0.91-0.27-1.85-0.51-2.77
	c0.5,1.72,0.92,3.45,1.19,5.25c0.46,3.11,0.6,6.27,0.4,9.41c-0.2,3.14-0.72,6.26-1.57,9.28c-0.83,2.96-2.08,5.68-3.3,8.48
	C93.36,77.53,93.23,77.22,93.11,76.92z M92.64,75.8c1.69-2.28,2.33-5.07,2.96-7.79c0.62-2.66,1.1-5.36,1.37-8.08
	c-0.34,5.8-1.29,11.57-3.94,16.8C92.9,76.42,92.78,76.11,92.64,75.8z M92.01,74.33c0.75,0.16,1.07-0.78,1.31-1.36
	c0.52-1.25,0.98-2.53,1.38-3.82c0.78-2.5,1.34-5.07,1.69-7.67c0.35-2.56,0.52-5.17,0.49-7.77c0.06,1.53,0.03,3.07-0.07,4.6
	c-0.21,3.02-0.71,6.02-1.34,8.98c-0.61,2.86-1.22,5.89-2.9,8.34C92.39,75.2,92.2,74.77,92.01,74.33z M91.66,73.56
	c0.03,0.06,0.14,0.08,0.19-0.01c1.34-2.52,2.16-5.39,2.8-8.15c0.67-2.84,1.06-5.74,1.18-8.66c0.22-5.26-0.33-10.98-2.17-15.98
	c1.04,2.03,1.8,4.16,2.33,6.34c0.58,4.22,0.74,8.45,0.27,12.71c-0.26,2.41-0.74,4.8-1.36,7.14c-0.31,1.15-0.65,2.3-1.04,3.42
	c-0.26,0.76-0.95,3.69-1.94,3.75C91.84,73.94,91.75,73.75,91.66,73.56z M91.08,72.27c1.34-2.28,2.23-4.78,2.77-7.36
	c1.08-5.16,0.98-10.55,0.76-15.79c-0.12-3-0.67-5.75-1.83-8.52c-0.27-0.65-0.55-1.29-0.83-1.93c-0.08-0.43-0.17-0.86-0.25-1.28
	c0.55,1.11,1.08,2.24,1.6,3.38c0.69,2.45,1.35,4.88,1.72,7.42c0.41,2.87,0.55,5.78,0.43,8.67c-0.12,2.81-0.48,5.61-1.1,8.35
	c-0.65,2.86-1.69,5.52-2.67,8.27c-0.01,0.03-0.01,0.06,0,0.08C91.47,73.13,91.27,72.7,91.08,72.27z M90.43,70.88
	c1.24-2.18,1.94-4.75,2.44-7.19c0.55-2.69,0.8-5.44,0.82-8.18c0.04-5.1-0.55-10.29-1.46-15.34c0.31,0.78,0.61,1.56,0.89,2.35
	c1.24,3.54,1.19,7.36,1.23,11.06c0.07,6.31-0.38,12.8-3.37,18.47C90.79,71.66,90.61,71.27,90.43,70.88z M89.96,69.92
	c2.24-5.43,3.12-11.57,3.14-17.42c0-0.82-0.02-1.64-0.05-2.46c0.15,1.74,0.25,3.49,0.24,5.25c-0.01,2.64-0.23,5.28-0.71,7.87
	c-0.48,2.61-1.36,5.02-2.25,7.49C90.2,70.42,90.08,70.17,89.96,69.92z M84.77,28.66c-0.03-0.03-0.08-0.04-0.13-0.04
	c-0.05-0.15-0.11-0.3-0.16-0.45C84.57,28.34,84.67,28.5,84.77,28.66z M89.16,39.7c0.03,0.19,0.05,0.38,0.08,0.57
	c-0.03,0-0.05,0.02-0.07,0.03c0-0.22-0.01-0.43-0.01-0.65C89.15,39.66,89.15,39.68,89.16,39.7z M88.49,67.01
	c0.05,0.02,0.1,0,0.12-0.06c3.22-9.89,3.4-20.81,0.86-30.92c0.47,1.47,0.89,2.96,1.22,4.49c0.65,3.03,1.03,6.11,1.13,9.21
	c0.22,6.32-0.75,12.61-2.63,18.64C88.96,67.92,88.73,67.46,88.49,67.01z M87.79,65.66c1.85-5.51,2.43-11.58,2.39-17.35
	c-0.03-3.93-0.34-8.01-1.11-11.95c0-0.07,0-0.15-0.01-0.22c2.45,10.11,2.15,20.63-0.63,30.74C88.21,66.47,88,66.06,87.79,65.66z
	 M86.7,63.66c1.82-3.97,2.32-8.37,2.46-12.7c0.33-2.33,0.48-4.69,0.45-7.01c0.11,1.55,0.17,3.1,0.18,4.65
	c0.01,5.74-0.95,11.26-2.12,16.85C87.35,64.85,87.03,64.25,86.7,63.66z M85.35,61.28c0.01-0.01,0.01-0.02,0.02-0.03
	c1.58-4.26,2.46-8.86,2.94-13.37c0.24-2.29,0.38-4.6,0.38-6.91c0-1.42,0.03-2.9-0.08-4.36c0.05,0.23,0.09,0.46,0.14,0.69
	c0.02,4.19,0.14,8.38,0.07,12.57c0,0.1-0.01,0.21-0.01,0.31c-0.05,0.43-0.1,0.86-0.17,1.29c-0.53,3.66-1.48,7.22-2.66,10.71
	c-0.03,0.1,0.11,0.16,0.16,0.06c1.03-2.52,1.86-5.2,2.44-7.95c-0.3,3.11-0.89,6.17-2.01,9.12c-0.27-0.49-0.54-0.97-0.82-1.46
	C85.62,61.73,85.48,61.5,85.35,61.28z M84.5,59.81c0.02-0.01,0.04-0.03,0.05-0.05c3.94-9.04,3.72-19.64,0.8-29.03
	c-0.16-0.68-0.34-1.35-0.54-2.01c0.84,1.44,1.52,2.96,2.05,4.54c0.74,2.21,0.98,4.41,1.3,6.7c0.01,0.07,0.09,0.09,0.14,0.07
	c0.01,0.35,0.02,0.7,0.01,1.06c-0.02,2.2-0.14,4.39-0.36,6.57c-0.48,4.57-1.52,8.99-2.7,13.42C84.99,60.66,84.75,60.23,84.5,59.81z
	 M84.03,59.03c0,0,0-0.01,0.01-0.01c0.62-2.53,0.97-5.16,1.35-7.74c0.38-2.59,0.68-5.19,0.83-7.8c0.14-2.43,0.15-4.91-0.05-7.37
	c1.41,7.84,1.07,15.85-1.78,23.51C84.27,59.42,84.15,59.23,84.03,59.03z M83.05,57.39c1.36-4.45,1.86-9.26,2.14-13.89
	c0.14-2.29,0.19-4.59,0.14-6.88c-0.03-1.33-0.02-2.72-0.1-4.1c0.62,3.77,0.79,7.57,0.56,11.44c-0.15,2.55-0.44,5.1-0.79,7.63
	c-0.33,2.41-0.83,4.82-1.09,7.24C83.63,58.35,83.34,57.87,83.05,57.39z M65.36,11.16c-0.82,4.45-0.72,9.13-2.4,13.37
	c-0.01,0.02-0.02,0.04-0.02,0.06c0.03-0.21,0.05-0.42,0.09-0.6l0.35-1.97c0.24-1.38,0.49-2.75,0.73-4.13
	c0.42-2.39,0.84-4.77,1.23-7.17c0,0.11,0,0.22,0,0.33C65.32,11.1,65.33,11.13,65.36,11.16z M80.7,53.6c0.9-2.28,0.58-4.88,0.44-7.27
	c-0.18-3.01-0.49-6.01-0.93-8.99c-0.72-4.87-1.79-9.69-3.18-14.42c0.02-0.03,0.03-0.07,0.01-0.12c-0.04-0.09-0.08-0.18-0.13-0.28
	c-0.12-0.42-0.25-0.84-0.38-1.26c2.67,4.87,3.29,10.67,4.07,16.08c0.84,5.81,1.53,11.75,0.95,17.62
	C81.27,54.52,80.99,54.06,80.7,53.6z M80.62,53.2c-0.11-5.61-0.55-11.25-1.37-16.79c-0.81-5.44-2.02-10.94-4.11-16.05
	c0.61,0.63,1.09,1.34,1.47,2.14c1.42,4.77,2.5,9.63,3.24,14.54c0.42,2.8,0.74,5.62,0.94,8.44c0.1,1.36,0.18,2.73,0.22,4.1
	C81.04,50.79,81.03,52.05,80.62,53.2z M79.55,51.79c0.03-0.02,0.05-0.05,0.05-0.09c-0.49-10.91-1.31-22.49-6.2-32.46
	c0.72,0.8,1.33,1.69,1.82,2.68c0.03,0.07,0.09,0.09,0.15,0.09c1.64,4.76,2.82,9.62,3.55,14.62c0.79,5.45,1.07,10.92,1.42,16.4
	C80.08,52.62,79.82,52.2,79.55,51.79z M77.99,49.36c0-0.01,0.01-0.01,0.01-0.02c0.41-3.57,0.43-7.19,0.12-10.8
	c0.57,4.31,0.92,8.67,1.29,13.01C78.93,50.82,78.46,50.09,77.99,49.36z M76.84,47.6c0.42-2.37,0.36-4.91,0.29-7.28
	c-0.08-2.68-0.36-5.35-0.83-8c-0.9-5.11-2.48-10.14-4.78-14.8c0.71,0.24,1.01,1.08,1.31,1.74c0.03,0.06,0.09,0.08,0.14,0.07
	c0.26,0.57,0.52,1.14,0.75,1.71c1.57,4.27,2.7,8.67,3.4,13.17c0.76,4.94,0.86,9.89,0.68,14.87C77.48,48.58,77.16,48.09,76.84,47.6z
	 M75.77,45.96c0.01-0.01,0.01-0.02,0.02-0.04c0.34-4.57-0.14-9.31-0.77-13.83c-0.46-3.29-1.06-6.61-1.93-9.84
	c1.23,3.28,2.19,6.66,2.8,10.13c0.45,2.53,0.73,5.09,0.84,7.65c0.1,2.4-0.1,4.78-0.14,7.17C76.31,46.79,76.04,46.38,75.77,45.96z
	 M74.51,44.05c0.53-3.63,0.48-7.36,0.16-11.01c-0.04-0.51-0.09-1.02-0.15-1.54c0.03,0.22,0.07,0.43,0.1,0.65
	c0.63,4.51,0.74,9.01,0.97,13.55C75.23,45.15,74.87,44.6,74.51,44.05z M73.17,42.02c0.59-4.23,0.5-8.61,0.07-12.84
	c-0.4-3.95-1.16-7.88-2.34-11.67c-0.01-0.08-0.02-0.15-0.03-0.23c0.38,0.63,0.68,1.3,0.98,1.99c0.01,0.02,0.03,0.04,0.05,0.05
	c0.03,0.07,0.07,0.15,0.1,0.22c0.22,0.89,0.44,1.77,0.65,2.66c-0.06-0.17-0.35-0.08-0.31,0.09c0.8,3.54,1.59,7.01,1.92,10.63
	c0.34,3.64,0.25,7.25,0.09,10.89C73.96,43.22,73.57,42.62,73.17,42.02z M71.72,39.82c0.89-3.96,1.19-8.19,0.89-12.32
	c0.07,0.53,0.13,1.05,0.18,1.58c0.44,4.22,0.36,8.39,0.16,12.61C72.54,41.06,72.13,40.44,71.72,39.82z M70.82,38.46
	c1-6.08,0.97-12.5,0.33-18.68c0.14,0.57,0.27,1.14,0.4,1.72c-0.1,0.01-0.18,0.08-0.16,0.21c0.51,3.06,0.88,6.1,0.88,9.21
	c0,2.9-0.29,5.77-0.73,8.63C71.3,39.18,71.06,38.82,70.82,38.46z M69.5,36.44c0.93-5.03,1.45-10.23,1.3-15.38
	c0.18,2.25,0.29,4.5,0.3,6.75c0.02,3.46-0.25,6.88-0.49,10.32C70.24,37.57,69.87,37,69.5,36.44z M68.35,34.67
	c0.06,0.03,0.14,0.02,0.16-0.05c0.71-2.72,1.09-5.58,1.38-8.37c0.15-1.46,0.27-2.93,0.33-4.39c0-0.02,0-0.04,0-0.06
	c0.06,4.78-0.19,9.54-0.96,14.29C68.96,35.61,68.66,35.14,68.35,34.67z M66.76,32.18c1.53-5.3,2.44-10.94,2.8-16.46
	c0.12,0.55,0.21,1.09,0.28,1.65c-0.45,2.45-0.77,4.93-1.13,7.39c-0.41,2.82-0.85,5.66-1.06,8.51c-0.01,0.1,0.13,0.11,0.15,0.02
	c0.55-2.8,0.89-5.66,1.3-8.48c0.24-1.7,0.52-3.41,0.76-5.11c-0.01,0.77-0.01,1.54-0.05,2.29c-0.07,1.41-0.17,2.81-0.3,4.22
	c-0.28,2.81-0.78,5.57-1.2,8.37c0,0.01,0,0.01,0,0.02C67.78,33.79,67.27,32.98,66.76,32.18z M64.9,29.22
	c0.03-0.01,0.05-0.03,0.07-0.06c1.26-4.04,2.18-8.32,2.81-12.55c-0.52,4.71-1.27,9.38-1.85,14.08c-0.01,0.11,0.14,0.12,0.16,0.02
	c1.27-5.31,1.84-10.85,2.26-16.29c0.38,0.84,0.51,1.69,0.54,2.65c0,0.05,0.03,0.08,0.07,0.09c-0.2,2.08-0.44,4.15-0.75,6.22
	c-0.44,2.88-1.03,5.72-1.59,8.57C66.04,31.05,65.47,30.14,64.9,29.22z M64.31,28.27c0.02-0.01,0.04-0.03,0.04-0.06
	c0.47-2.56,1.17-5.1,1.71-7.65c0.44-2.1,0.88-4.19,1.32-6.29c0,0.62,0,1.23,0.01,1.85c-0.32,1.83-0.63,3.67-1,5.49
	c-0.5,2.47-1.11,4.92-1.63,7.39C64.61,28.76,64.46,28.51,64.31,28.27z M63.3,26.62c0.05,0,0.1-0.02,0.12-0.06
	c0.54-1.11,0.98-2.25,1.32-3.42c-0.27,1.65-0.49,3.3-0.54,4.97C63.91,27.61,63.6,27.11,63.3,26.62z M62.63,25.49
	c0.04,0.02,0.11,0.01,0.13-0.04c1.66-3.39,1.98-7.13,2.44-10.83c-0.4,3.99-1.05,7.95-1.98,11.85
	C63.02,26.14,62.82,25.81,62.63,25.49z M61.88,24.22c0.04-0.01,0.09-0.04,0.11-0.08c1.07-2.11,1.4-4.42,1.74-6.73
	c0.35-2.39,0.67-4.78,0.96-7.17c0.07,0.3,0.13,0.6,0.19,0.9c-0.82,4.74-1.53,9.51-2.29,14.26c0,0.01,0,0.01,0,0.02
	C62.35,25.02,62.11,24.62,61.88,24.22z M62.58,21.69c0.09-0.38,0.18-0.76,0.26-1.14C62.76,20.93,62.68,21.31,62.58,21.69z
	 M61.15,22.97c0,0,0-0.01,0.01-0.01c1.17-3.83,2.11-7.7,2.79-11.63c-0.27,4.27-1.23,8.46-2.23,12.62
	C61.53,23.62,61.34,23.3,61.15,22.97z M60.25,21.4c0.02-0.02,0.03-0.03,0.04-0.06c1.33-4.07,2.32-8.22,2.96-12.45
	c0.14,4.65-1.72,9.1-2.34,13.68C60.69,22.18,60.47,21.79,60.25,21.4z M48.71,2.31c-0.04,0.01-0.08,0.04-0.1,0.07
	c-0.05-0.06-0.11-0.13-0.16-0.19C48.54,2.23,48.63,2.27,48.71,2.31z M49.3,2.64c1.71,1.1,2.85,3.11,3.92,4.77
	c0.83,1.29,1.62,2.61,2.32,3.98c0.38,0.76,0.7,1.53,1,2.31c0.07,0.52,0.15,1.03,0.22,1.55c-1.03-2.11-1.92-4.28-3.17-6.28
	c-1.27-2.05-2.77-3.92-4.31-5.77c-0.13-0.26-0.26-0.52-0.39-0.79c0.11,0.06,0.22,0.12,0.32,0.18C49.24,2.61,49.27,2.63,49.3,2.64z
	 M57.09,16.86c0.04,0.11,0.09,0.22,0.13,0.34c-0.37-0.42-0.65-1.03-0.9-1.42c-0.43-0.68-0.86-1.35-1.28-2.03
	c-0.73-1.19-1.45-2.39-2.13-3.6C51.89,8.32,50.93,6.48,50,4.62c1.14,1.43,2.24,2.89,3.22,4.43c1.42,2.23,2.33,4.73,3.66,6.99
	c0.02,0.11,0.03,0.21,0.05,0.32c0.01,0.07,0.06,0.09,0.11,0.09c-0.01,0.02-0.01,0.05,0,0.08c0.03,0.08,0.06,0.15,0.09,0.23
	C57.09,16.78,57.07,16.81,57.09,16.86z M53.18,5.39c1.14,1.74,2.07,3.56,2.98,5.42c0.06,0.43,0.11,0.87,0.16,1.3
	c-0.83-1.78-1.92-3.48-2.93-5.06c-1.09-1.68-2.24-3.67-3.98-4.75c-0.12-0.29-0.22-0.57-0.31-0.88C50.99,1.71,52.23,3.95,53.18,5.39z
	 M53.33,4.56c0.53,0.78,1.03,1.56,1.54,2.35c0.28,0.44,0.57,0.87,0.82,1.33c0.09,0.27,0.18,0.54,0.26,0.81
	c0.04,0.38,0.09,0.75,0.14,1.13c-0.78-1.95-1.85-3.82-3.02-5.55c-0.8-1.18-1.74-2.73-3.12-3.33c0.46,0.15,0.86,0.38,1.23,0.66
	c0,0,0,0.01,0,0.01c0.01,0.08,0.08,0.11,0.14,0.1C52.12,2.75,52.73,3.68,53.33,4.56z M54.43,5.18c0.29,0.56,0.54,1.14,0.77,1.72
	c-0.03-0.04-0.06-0.09-0.08-0.13c-0.55-0.91-1.13-1.81-1.73-2.7c-0.55-0.82-1.16-1.7-1.93-2.33c0.08-0.16,0.28-0.23,0.61-0.18
	c0.14,0.17,0.27,0.34,0.4,0.51c0.23,0.3,0.45,0.61,0.66,0.92c0.07,0.1,0.13,0.2,0.2,0.3c0.02,0.08,0.03,0.15,0.05,0.23
	c0.02,0.08,0.09,0.1,0.15,0.08C53.85,4.11,54.15,4.63,54.43,5.18z M55.5,5.16c0.09,0.8,0.17,1.59,0.27,2.39
	c-0.49-1.61-1.23-3.15-2.13-4.56c-0.03-0.04-0.06-0.09-0.09-0.15c-0.07-0.65-0.18-1.3-0.27-1.95C54.51,1.84,55.14,3.5,55.5,5.16z
	 M57.09,15.11c0.03,0.07,0.06,0.14,0.08,0.21c0,0.1,0.01,0.2,0.01,0.31c0,0.15,0,0.3,0,0.45c-0.02-0.03-0.04-0.07-0.05-0.1
	C57.11,15.68,57.1,15.4,57.09,15.11z M56.87,10c-0.08,1.02-0.12,2.04-0.11,3.07c-0.13-1.05-0.25-2.11-0.37-3.16
	c0.03-0.01,0.05-0.04,0.05-0.08c-0.02-0.29-0.07-0.56-0.15-0.83c-0.24-2.13-0.47-4.26-0.69-6.39C56.11,5.05,56.46,7.52,56.87,10z
	 M57.13,14.16c-0.03-0.08-0.05-0.17-0.08-0.25c-0.02-1.16-0.01-2.32,0.06-3.48c0.03-0.02,0.05-0.06,0.05-0.1
	c-0.01-0.07-0.02-0.14-0.03-0.22c0.08-1.16,0.21-2.31,0.42-3.45C57.27,9.16,57.09,11.66,57.13,14.16z M58.65,18.51
	c0.04-0.01,0.07-0.04,0.07-0.09c0.37-3.34,0.98-6.62,2-9.81c0.01,0,0.02-0.01,0.02-0.02C60.93,8.3,61.1,8,61.26,7.7
	c0.31,0.92,0.01,2.03-0.14,2.96c-0.16,0.98-0.33,1.95-0.52,2.92c-0.39,1.98-0.93,3.91-1.43,5.87
	C58.99,19.13,58.82,18.82,58.65,18.51z M57.85,17c0.19-2.94,1-5.76,2.46-8.29c-0.95,3.1-1.6,6.29-1.8,9.53
	C58.29,17.83,58.07,17.42,57.85,17z M57.43,16.28c0-0.25,0.01-0.51,0.02-0.76c0.02-0.02,0.03-0.05,0.02-0.09
	c0-0.02-0.01-0.04-0.01-0.06c0.02-0.58,0.06-1.16,0.12-1.73c-0.04,0.91-0.02,1.83,0.07,2.75c0,0.07-0.01,0.14-0.01,0.21
	c-0.04-0.08-0.08-0.15-0.12-0.23C57.5,16.33,57.47,16.3,57.43,16.28z M58.06,19.21c-2.18-2.38-4.13-4.96-5.74-7.76
	c-0.82-1.43-1.54-2.91-2.18-4.43c-0.54-1.28-0.92-2.61-1.38-3.92c0.08,0.1,0.17,0.2,0.25,0.3c1.24,2.72,2.68,5.36,4.19,7.94
	c0.8,1.37,1.64,2.71,2.51,4.04c0.41,0.63,0.92,1.79,1.67,2.21C57.6,18.14,57.83,18.68,58.06,19.21z M51.63,20.27
	c0.03,0.02,0.06,0.04,0.09,0.06c-0.81-0.48-1.59-1-2.33-1.58c-0.61-0.48-1.19-1.01-1.73-1.57c-0.51-0.54-1.3-1.27-1.47-2.06
	c0.18,0.1,0.35,0.2,0.5,0.33C47.65,17.47,49.94,19.15,51.63,20.27z M59,21.27c-0.02-0.02-0.04-0.04-0.07-0.06
	c0-0.05-0.03-0.09-0.08-0.11c-0.02,0-0.03-0.01-0.05-0.01c-0.02-0.02-0.03-0.03-0.05-0.05c0.04,0,0.09-0.03,0.11-0.07
	C58.9,21.07,58.95,21.17,59,21.27z M59.5,22.31c-2.76-0.38-5.13-2.08-7.18-3.9c-1.1-0.98-2.12-2.06-3.04-3.21
	c-0.61-0.76-1.28-1.59-1.76-2.48c1.52,1.67,3.17,3.22,4.93,4.63c1.08,0.86,2.2,1.67,3.36,2.42c0.89,0.58,1.86,1.29,2.92,1.51
	c0.1,0.08,0.19,0.16,0.29,0.23c0.03,0.03,0.07,0.02,0.09,0C59.23,21.78,59.37,22.04,59.5,22.31z M59.89,23.12
	c-2.72-0.54-5.3-1.44-7.66-2.93c-1.18-0.74-2.28-1.61-3.27-2.59c-0.56-0.55-1.14-1.15-1.59-1.82c0.01-0.04,0.01-0.08-0.03-0.12
	c-0.04-0.05-0.09-0.09-0.14-0.14c-0.28-0.47-0.49-0.97-0.58-1.52c1.24,1.14,2.48,2.29,3.73,3.41c0.1,0.09,0.22,0.02,0.25-0.08
	c0.47,0.49,0.96,0.96,1.47,1.41c2.12,1.89,4.68,3.75,7.61,3.96C59.75,22.84,59.82,22.98,59.89,23.12z M61.04,25.34
	c-1.32-0.34-2.57-0.92-3.82-1.47c-1.21-0.53-2.4-1.08-3.56-1.69c-1.18-0.63-2.23-1.33-3.21-2.12c0.41,0.27,0.83,0.53,1.26,0.78
	c1.35,0.77,2.78,1.42,4.23,1.99c0.77,0.3,1.54,0.58,2.32,0.85c0.57,0.2,1.24,0.56,1.85,0.44c0.01,0,0.02-0.02,0.01-0.02
	c-0.38-0.43-1.04-0.54-1.58-0.73c-0.64-0.23-1.27-0.47-1.9-0.71c-0.02-0.01-0.04-0.02-0.06-0.02c1.12,0.35,2.26,0.59,3.42,0.69
	C60.33,24,60.69,24.67,61.04,25.34z M61.7,26.56c-0.56-0.27-1.2-0.41-1.78-0.6c-0.83-0.27-1.66-0.54-2.47-0.84
	c-1.7-0.63-3.38-1.35-4.94-2.28c-2.61-1.57-4.66-3.67-6.05-6.34c0.31,0.43,0.7,0.83,1.07,1.19c1.37,2.09,3.67,3.63,5.79,4.8
	c1.21,0.67,2.47,1.25,3.74,1.8c1.34,0.57,2.74,1.3,4.2,1.46C61.4,26.02,61.55,26.29,61.7,26.56z M62.84,28.61
	c-3.01-1.24-6.1-2.19-8.94-3.85c-1.27-0.75-2.49-1.6-3.58-2.6c-0.53-0.48-0.98-0.98-1.41-1.51c0.94,0.92,2,1.72,3.09,2.39
	c1.52,0.94,3.16,1.68,4.83,2.29c0.92,0.34,1.85,0.65,2.79,0.94c0.71,0.22,1.48,0.53,2.23,0.58C62.18,27.44,62.51,28.03,62.84,28.61z
	 M48.26,24.63c-0.18-0.09-0.36-0.17-0.54-0.25c-0.09-0.04-0.15,0.03-0.15,0.11c-0.31-0.24-0.6-0.5-0.87-0.77
	C47.2,24.04,47.72,24.35,48.26,24.63z M64.51,31.43c-2.86-0.76-5.68-1.65-8.41-2.79c-1.4-0.58-2.77-1.23-4.12-1.92
	c-1.11-0.57-2.17-1.28-3.28-1.87c4.55,2.3,9.8,3.09,14.66,4.62C63.73,30.13,64.11,30.78,64.51,31.43z M66.28,34.32
	c-1.74-0.57-3.55-0.91-5.28-1.53c-1.76-0.62-3.48-1.35-5.14-2.18c-2.25-1.13-4.41-2.46-6.45-3.95c0.1,0,0.14-0.17,0.03-0.2
	c-0.18-0.06-0.36-0.12-0.54-0.17c-0.87-0.65-1.71-1.33-2.53-2.05c0.16-0.01,0.3,0.02,0.44,0.09c0.12,0.1,0.24,0.2,0.36,0.3
	c0.02,0.02,0.04,0.05,0.06,0.07c0.02,0.02,0.05,0.03,0.07,0.03c0.72,0.56,1.51,1.05,2.28,1.53c1.53,0.96,3.1,1.87,4.71,2.68
	c3.44,1.75,7.05,3.13,10.76,4.18c0.21,0.06,0.35-0.26,0.13-0.33c-3.49-1.01-6.89-2.33-10.15-3.94c-1.65-0.81-3.26-1.69-4.83-2.65
	c0.46,0.24,0.91,0.47,1.36,0.7c1.44,0.75,2.92,1.43,4.42,2.05c2.81,1.16,5.72,2.09,8.7,2.71C65.19,32.57,65.73,33.45,66.28,34.32z
	 M67.09,35.62c-3.64-1.15-7.25-2.31-10.75-3.88c-3.47-1.55-7.18-3.22-9.94-5.88c0.75,0.24,1.51,0.48,2.28,0.66
	c2.15,1.68,4.44,3.15,6.89,4.38c1.75,0.88,3.57,1.65,5.43,2.28c1.72,0.58,3.62,1.25,5.45,1.41C66.66,34.94,66.88,35.28,67.09,35.62z
	 M67.91,36.9c-3.6-1.15-7.14-2.51-10.56-4.14c-1.02-0.49-2.04-1-3.04-1.54c0.43,0.21,0.85,0.41,1.29,0.61
	c3.7,1.69,7.64,3.19,11.64,4.02C67.46,36.21,67.69,36.55,67.91,36.9z M68.92,38.48c-4.1-1.36-8.13-2.81-12.01-4.74
	c-2.06-1.02-4.06-2.13-6.03-3.33c-1.78-1.08-3.77-2.2-4.7-4.15c0.26,0.31,0.56,0.6,0.88,0.86c0,0.02,0.01,0.04,0.03,0.06
	c1.44,1.32,3.36,2.29,5.04,3.26c1.61,0.92,3.26,1.78,4.93,2.58c3.54,1.68,7.21,3.08,10.99,4.12C68.35,37.59,68.64,38.04,68.92,38.48
	z M70.37,40.74c-4.27-1.55-8.46-3.2-12.54-5.21c-0.92-0.45-1.82-0.92-2.73-1.39c0.19,0.08,0.37,0.17,0.55,0.25
	c4.6,2.11,9.32,4.1,14.15,5.63c0.04,0.01,0.07,0.01,0.1-0.01C70.06,40.26,70.22,40.5,70.37,40.74z M47.9,38.94
	c0.01-0.02,0.02-0.05,0.02-0.08c0.34,0.24,0.68,0.47,1.02,0.71C48.6,39.36,48.25,39.15,47.9,38.94z M46.54,33.12
	c0.08,0.06,0.15,0.12,0.23,0.18c0.02,0.03,0.04,0.04,0.06,0.05c2.54,2.01,5.24,3.83,8.06,5.44c-0.83-0.41-1.67-0.81-2.51-1.21
	c-0.04-0.02-0.08-0.01-0.1,0.01c-1.7-1.01-3.39-2.03-5.09-3.06c0.04-0.04,0.05-0.09,0-0.15C46.85,34,46.64,33.6,46.54,33.12z
	 M71.96,43.22c-2.01-0.92-4.24-1.5-6.3-2.26c-2.23-0.82-4.45-1.67-6.63-2.6c-2.22-0.95-4.42-1.97-6.55-3.11
	c-2.06-1.1-3.97-2.39-5.95-3.62c-0.17-0.33-0.35-0.65-0.52-0.99c1.89,1.59,4.13,2.92,6.5,3.61c1.28,0.77,2.58,1.49,3.9,2.17
	c4.66,2.41,9.64,4.39,14.77,5.57c0.1,0.16,0.21,0.33,0.31,0.49C71.65,42.72,71.8,42.97,71.96,43.22z M72.76,44.47
	c-2.14-0.75-4.33-1.36-6.47-2.14c-2.26-0.83-4.49-1.72-6.69-2.7c-4.42-1.97-8.68-4.27-12.8-6.81c-0.07-0.19-0.15-0.38-0.22-0.56
	c0.02,0.03,0.04,0.06,0.07,0.09c0.08,0.09,0.22,0.01,0.19-0.1c1.63,1.22,3.44,2.23,5.22,3.2c2.17,1.18,4.41,2.24,6.69,3.2
	c2.29,0.97,4.61,1.86,6.94,2.7c2.1,0.75,4.29,1.7,6.48,2.18C72.36,43.84,72.56,44.16,72.76,44.47z M73.6,45.78
	c-1.08-0.39-2.27-0.59-3.36-0.91c-1.2-0.36-2.39-0.74-3.57-1.16c-2.36-0.83-4.68-1.79-6.95-2.86c-3.79-1.79-7.39-3.92-10.81-6.32
	c3.35,2.02,6.83,3.82,10.4,5.4c2.3,1.02,4.64,1.96,7.01,2.79c2.15,0.76,4.36,1.55,6.6,2.02C73.15,45.08,73.37,45.43,73.6,45.78z
	 M74.72,47.55C71,45.99,67.21,44.64,63.52,43c-0.27-0.12-0.54-0.25-0.81-0.37c1.35,0.56,2.72,1.08,4.11,1.55
	c1.19,0.4,2.38,0.78,3.59,1.11c1.08,0.3,2.25,0.7,3.38,0.8C74.1,46.57,74.41,47.06,74.72,47.55z M76.15,49.84
	c-1.01-0.6-2.19-1-3.24-1.47c-1.25-0.56-2.49-1.14-3.74-1.73c-2.53-1.2-5.04-2.45-7.52-3.75c-1.07-0.56-2.13-1.14-3.18-1.72
	c1.57,0.76,3.17,1.47,4.74,2.17c3.79,1.69,7.7,3.4,11.7,4.51C75.32,48.52,75.74,49.18,76.15,49.84z M76.97,51.19
	c-2.58-1.16-5.25-2.1-7.82-3.28c-2.56-1.17-5.07-2.45-7.54-3.78c-2.62-1.4-5.2-2.88-7.75-4.4c-2.16-1.29-4.27-2.72-6.51-3.9
	c-0.12-0.35-0.25-0.69-0.39-1.02c4.56,3.06,9.38,5.77,14.23,8.33c2.58,1.36,5.19,2.66,7.82,3.91c1.24,0.59,2.49,1.15,3.74,1.71
	c1.15,0.51,2.37,1.18,3.62,1.46C76.57,50.54,76.77,50.86,76.97,51.19z M77.87,52.66c-10.71-4.43-21-9.67-30.48-16.37
	c0.03-0.01,0.06-0.03,0.07-0.06c2.16,1.51,4.5,2.8,6.76,4.15c2.39,1.42,4.79,2.83,7.23,4.16c2.52,1.38,5.08,2.67,7.7,3.85
	c2.54,1.15,5.18,2.34,7.9,3.01c0.02,0.01,0.04,0,0.05-0.01C77.35,51.81,77.61,52.23,77.87,52.66z M78.9,54.39
	c-2.64-1.2-5.35-2.25-7.99-3.45c-2.66-1.2-5.29-2.46-7.89-3.78c-5.27-2.68-10.27-5.77-15.34-8.78c-0.34-0.69-0.65-1.38-0.88-2.11
	c9.55,6.95,20.04,12.86,31.24,16.69C78.34,53.44,78.62,53.91,78.9,54.39z M79.92,56.15c-5.86-2.19-11.5-4.77-16.94-7.85
	c-3.1-1.76-6.1-3.68-9.1-5.61c2.84,1.68,5.76,3.24,8.67,4.73c2.69,1.38,5.43,2.69,8.2,3.91c2.7,1.19,5.45,2.39,8.27,3.27
	C79.33,55.12,79.63,55.64,79.92,56.15z M81.87,59.62c-2.24-1.17-4.5-2.31-6.76-3.46c1.87,0.68,3.77,1.2,5.72,1.57
	C81.17,58.36,81.53,58.99,81.87,59.62z M82.76,61.28c-2.82-1.15-5.66-2.24-8.43-3.51c-5.13-2.36-10.06-5.15-14.71-8.35
	c-3.16-2.18-6.14-4.57-9-7.09c3.89,3.04,8.35,5.49,12.56,7.9c6.08,3.49,12.31,6.89,18.76,9.65c0.03,0.01,0.06,0.01,0.08,0
	C82.26,60.35,82.51,60.82,82.76,61.28z M97.88,116.46c0.02,0.54,0.04,1.08,0.05,1.62c-2.26-0.21-4.63-0.96-6.73-1.77
	c-1.91-0.73-3.71-1.79-5-3.37c3.03,2.42,6.72,3.84,10.62,4.01c0.14,0.01,0.21-0.2,0.06-0.25c-3-1.03-5.77-2.63-8.44-4.34
	c1.59,0.7,3.12,1.52,4.61,2.41C94.57,115.67,96.1,116.33,97.88,116.46z M97.76,113.99C97.76,113.99,97.76,113.99,97.76,113.99
	c0.03,0.49,0.06,0.98,0.08,1.47c0.01,0.24,0.02,0.48,0.03,0.72c-0.06-0.01-0.11-0.01-0.16-0.02c-4.66-2.69-9.29-5.3-12.59-9.61
	c1.62,1.57,3.29,3.06,5.13,4.39c2.22,1.62,4.6,2.96,7.03,4.23c0.15,0.08,0.26-0.15,0.14-0.25c-2.14-1.64-4.3-3.28-6.49-4.84
	c-0.05-0.03-0.1,0.04-0.05,0.07c1.33,1.09,2.69,2.16,4.05,3.21c-2.21-1.31-4.34-2.79-6.16-4.62c-0.92-0.93-1.75-1.94-2.46-3.03
	c-0.36-0.54-0.67-1.11-0.96-1.69c0.09,0.12,0.18,0.23,0.25,0.34C88.57,108.66,92.94,112.02,97.76,113.99z M87.94,106.86
	c2.69,2.15,5.47,4.2,8.33,6.14C93.12,111.48,90.32,109.39,87.94,106.86z M93.2,109.45c0.58,0.36,1.14,0.74,1.69,1.13
	c0.91,0.71,1.81,1.42,2.66,2.14c0.05,0.04,0.1,0.04,0.13,0.01c0.02,0.3,0.04,0.59,0.06,0.89c-1.71-1.12-3.4-2.27-5.06-3.46
	c-0.44-0.32-4.41-3.48-4.58-3.31c0.18-0.18,2.33,1.03,2.56,1.15C91.52,108.46,92.37,108.93,93.2,109.45z M85.12,99.13
	c1.77,2.93,3.77,5.63,6.1,8.04C88.62,104.93,86.32,102.45,85.12,99.13z M97.56,111.17c0.04,0.43,0.07,0.86,0.1,1.3
	c-0.11-0.1-0.22-0.2-0.33-0.29c0.02-0.03,0.03-0.08-0.01-0.11c-0.23-0.16-0.46-0.33-0.7-0.5c-1.08-0.91-2.21-1.79-3.33-2.69
	c-3.3-2.93-6.19-6.39-8.24-10.24C88.11,103.85,92.38,108.08,97.56,111.17z M96.37,101.6c0.1,0.59,0.19,1.19,0.28,1.78
	c-1.46-3.83-4.8-7.1-8.31-9.07c-1.81-1.02-3.75-1.62-5.7-2.28c-1.77-0.6-3.56-1.34-4.87-2.69c2.96,1.95,6.39,2.76,9.61,4.21
	c3.71,1.67,6.86,4.49,8.92,8C96.31,101.57,96.34,101.59,96.37,101.6z M84.43,90.67c-1.79-0.56-3.62-0.94-5.38-1.6
	c-2.52-0.95-4.42-2.85-5.13-5.41c2.3,3.21,5.96,5.09,9.53,6.6C83.78,90.4,84.11,90.53,84.43,90.67z M90.94,80.28
	c-3.29-1.37-6.46-2.98-9.4-5.01c-2.67-1.84-5.07-3.99-7.33-6.3c2.21,1.98,4.72,3.7,7.19,5.29c2.88,1.85,5.9,3.57,9.04,4.92
	c0.04,0.02,0.08,0.01,0.1-0.02C90.68,79.54,90.81,79.91,90.94,80.28z M91.32,81.39c-0.01-0.02-0.02-0.04-0.05-0.05
	c-3.4-1.7-6.96-2.97-10.17-5.05c-3-1.95-5.61-4.41-7.46-7.47c4.52,5.3,10.82,9.48,17.38,11.69C91.12,80.8,91.22,81.09,91.32,81.39z
	 M94.36,91.82c-0.49-0.43-0.92-0.99-1.41-1.42c-0.56-0.5-1.14-0.96-1.76-1.37c-0.07-0.05-0.15-0.09-0.22-0.14
	c0.01,0,0.01,0.01,0.02,0.01c0.67,0.35,1.32,0.77,1.9,1.25c0.52,0.43,1.03,1.2,1.47,1.64C94.35,91.81,94.36,91.81,94.36,91.82z
	 M95.09,94.97c-2.41-2.36-5.31-4.21-8.43-5.48c-2.28-0.92-5.27-1.52-7.4-3c0.45,0.13,0.94,0.2,1.35,0.27
	c1.76,0.33,3.49,0.82,5.16,1.46c3.3,1.27,6.34,3.15,9.02,5.45C94.9,94.1,94.99,94.54,95.09,94.97z M95.52,96.99
	c0-0.01-0.01-0.02-0.02-0.03c-0.64-0.83-1.39-1.55-2.22-2.19c0.7,0.47,1.39,0.96,2.08,1.47C95.41,96.49,95.46,96.74,95.52,96.99z
	 M95.36,97.07c0.07,0.07,0.17,0,0.16-0.07c0.14,0.69,0.28,1.38,0.41,2.07c-1.8-2.84-4.4-5.05-7.34-6.64
	c0.32,0.15,0.64,0.3,0.96,0.46C91.75,93.97,93.63,95.33,95.36,97.07z M84.91,89.19c3.83,1.28,7.25,3.38,10.24,6.07
	c0.05,0.25,0.11,0.5,0.16,0.75c-3.11-2.78-6.96-4.9-10.82-6.41c-2.14-0.84-4.36-1.47-6.25-2.82c-0.22-0.16-0.44-0.33-0.65-0.5
	c0.01-0.02,0.01-0.05-0.01-0.08c-0.6-0.76-0.9-1.59-0.88-2.5C77.81,87.12,81.81,88.16,84.91,89.19z M86.23,87.45
	c1.57,0.34,3.13,0.81,4.52,1.63c1.38,0.82,2.54,1.92,3.68,3.03c0.1,0.43,0.21,0.86,0.31,1.29c-2.22-2.01-4.73-3.65-7.47-4.88
	c-1.46-0.66-2.98-1.2-4.53-1.61c-0.69-0.18-1.39-0.34-2.09-0.47c-0.75-0.14-1.89-0.2-2.32-0.94C80.86,86.58,83.55,86.88,86.23,87.45
	z M88.83,86.89c1.23,0.41,2.42,0.9,3.55,1.56c0.55,0.4,1.06,0.87,1.48,1.44c0,0.01,0.01,0.02,0.01,0.03
	c0.13,0.49,0.25,0.98,0.37,1.47c-1.55-2.12-3.89-3.25-6.44-3.99c-1.64-0.47-3.3-0.86-4.96-1.26c-1.29-0.32-3.09-0.47-4.25-1.31
	c2.34,1.07,4.9,1.26,7.46,1.56C86.98,86.51,87.92,86.66,88.83,86.89z M93.52,88.74c0.01,0.02,0.03,0.03,0.05,0.03
	c0.06,0.23,0.13,0.46,0.19,0.69c-0.09-0.11-0.18-0.21-0.27-0.32c0.08,0.03,0.15-0.08,0.07-0.14c-0.29-0.25-0.6-0.47-0.91-0.68
	c-1.03-0.84-2.23-1.34-3.53-1.68c-1.33-0.46-2.71-0.8-4.05-1.14c-2.92-0.75-6.74-1.5-8.47-4.22c2.41,1.65,5.04,2.6,7.86,3.42
	C87.49,85.59,91.39,86.21,93.52,88.74z M73.9,73.67c5.01,5.73,11.9,9.61,18.9,12.41c0.19,0.65,0.38,1.3,0.56,1.96
	c-1.29-1.69-3.28-2.72-5.12-3.72c-1.98-1.07-4.01-2.04-5.99-3.1c-3.79-2.01-7.29-4.45-9.58-8.16c-0.63-1.01-1.17-2.07-1.69-3.14
	c-0.08-0.16-0.15-0.34-0.23-0.52C71.67,70.92,72.73,72.34,73.9,73.67z M92.04,83.59c0.14,0.46,0.29,0.91,0.43,1.37
	c-2.62-0.99-5.16-2.11-7.6-3.51c-2.51-1.45-4.72-3.25-7.09-4.91c-0.08-0.06-0.2,0.06-0.13,0.13c2.02,2.07,4.66,3.7,7.17,5.11
	c2.45,1.38,5.04,2.57,7.72,3.43c0.05,0.15,0.09,0.31,0.14,0.46c-4.4-1.77-8.65-3.98-12.5-6.76c-2.05-1.48-3.93-3.17-5.67-5
	c-1.01-1.07-2.08-2.25-3-3.51C76.82,76.63,84.16,81.41,92.04,83.59z M73.26,69.38c3.42,7.04,11.2,11.09,18.44,13.15
	c0.09,0.29,0.19,0.57,0.28,0.86c-6.39-2.23-12.14-5.55-17.14-9.97C73.95,72.2,73.35,70.91,73.26,69.38z M61.46,57.36
	c2.9,3.97,7.14,7.1,11.06,9.81c2.99,2.06,6.04,4.03,9.09,5.99c2.59,1.66,5.29,3.82,8.37,4.44c0.17,0.46,0.34,0.93,0.51,1.39
	c-3.05-1.63-6.07-3.27-8.98-5.14c-2.84-1.83-5.47-3.92-8.22-5.86c-0.01-0.01-0.03-0.01-0.04,0c-0.01-0.01-0.02-0.02-0.02-0.03
	c-0.1-0.11-0.28,0.03-0.18,0.15c0.17,0.2,0.33,0.41,0.51,0.61c-0.07-0.03-0.16,0.03-0.12,0.11c1.63,3.15,4.25,5.65,7.18,7.6
	c3.21,2.14,6.91,3.92,10.59,5.1c0.09,0.03,0.15-0.05,0.13-0.12c0.1,0.29,0.2,0.58,0.29,0.87c-3.76-1.5-7.54-2.87-10.91-5.18
	c-3.11-2.12-5.76-4.9-7.4-8.3c0.07,0,0.12-0.09,0.05-0.14c-2.57-1.83-5.13-3.62-7.41-5.81c-1.15-1.11-2.24-2.29-3.2-3.57
	C62.27,58.66,61.86,58.02,61.46,57.36z M89.49,76.41c0.02,0.01,0.03,0.01,0.05,0.01c0.12,0.33,0.25,0.65,0.37,0.98
	c-1.62-0.44-3.06-1.29-4.46-2.19c-1.52-0.97-3.03-1.96-4.54-2.94c-2.78-1.8-5.56-3.61-8.29-5.48c-2.45-1.68-4.84-3.46-7.02-5.48
	c-1.85-1.72-3.39-3.57-4.79-5.6C68.58,64.77,79.12,70.71,89.49,76.41z M88.34,73.35c0.15,0.38,0.3,0.76,0.45,1.14
	c-5.18-3.01-10.53-5.75-15.57-8.99c-4.66-3-8.76-6.73-12.47-10.82c3.93,3.71,8.22,7.07,12.68,10.12c2.42,1.66,4.9,3.22,7.45,4.68
	C83.28,70.86,85.76,72.33,88.34,73.35z M85.85,67.57c-2.38-1.25-4.77-2.48-7.16-3.72c2.07,0.81,4.18,1.51,6.33,2.1
	c0.03,0.01,0.05,0,0.07,0C85.35,66.49,85.6,67.03,85.85,67.57z M73.16,62.44c0.6,0.35,1.21,0.7,1.81,1.05c3.79,2.19,7.7,4.3,11.74,6
	c0.23,0.53,0.47,1.07,0.69,1.6c-4.61-2.86-9.29-5.62-13.92-8.45C73.38,62.58,73.27,62.51,73.16,62.44z M61.18,54.1
	c3.31,2.21,6.74,4.25,10.2,6.2c-0.03,0.05-0.03,0.12,0.03,0.17c0.93,0.66,2.04,1.1,3.06,1.58c0.07,0.03,0.13,0.06,0.2,0.09
	c3.63,2,7.32,3.94,11.1,5.64c0.07,0.03,0.12-0.01,0.14-0.07c0.23,0.5,0.46,1.01,0.68,1.51c-3.93-2.02-7.87-3.99-11.7-6.2
	c-3.85-2.22-7.47-4.77-11.25-7.08c-0.03-0.02-0.05-0.02-0.07-0.01C62.77,55.33,61.97,54.72,61.18,54.1z M51.53,45.63
	c0.34,0.33,0.68,0.66,1.03,0.98c4.39,4.05,9.54,7.2,14.71,10.12c5.4,3.05,11.05,6.07,17.08,7.68c0.15,0.3,0.3,0.6,0.44,0.91
	c0.06,0.12,0.12,0.25,0.17,0.37c-2.28-0.74-4.53-1.54-6.75-2.44c-1.11-0.45-2.2-0.92-3.29-1.42c-0.1-0.05-0.2-0.09-0.3-0.14
	c-0.51-0.28-1.02-0.56-1.53-0.85c-3.83-2.14-7.58-4.41-11.35-6.65c0.07-0.01,0.09-0.11,0.02-0.15c-3.05-1.57-5.73-3.73-8.14-6.15
	C52.91,47.16,52.21,46.4,51.53,45.63z M83.86,63.42c0.13,0.26,0.26,0.53,0.39,0.79c-3.18-1.15-6.29-2.4-9.34-3.88
	c-5.47-2.65-10.88-5.66-15.93-9.04c-3.88-2.6-7.4-5.62-10.27-9.26c1.34,1.47,2.77,2.85,4.28,4.16c4.39,3.8,9.31,6.85,14.42,9.58
	c2.75,1.47,5.55,2.85,8.37,4.19C78.42,61.22,81.05,62.6,83.86,63.42z"/>
<path d="M90.96,93.81c4,3.09,7.26,6.88,9.54,11.36c-1.32-1.8-2.85-3.41-4.86-4.5c-0.09-0.05-0.18,0.02-0.19,0.1
	c-0.16-0.33-0.31-0.67-0.45-1.02c-0.01-0.02-0.04-0.01-0.03,0.01c1.09,3.39,3.42,6.24,6.47,8.07c0.13,0.08,0.29-0.08,0.21-0.21
	c-1.42-2.22-3.09-4.28-5.02-6.08c1.96,1.33,3.38,3.32,4.66,5.3c0.11,0.16,0.33,0.02,0.25-0.15c-0.3-0.69-0.63-1.38-0.98-2.05
	c0.35,0.57,0.69,1.14,1.03,1.71c0.07,0.11,0.24,0.01,0.17-0.1c-1.23-2.19-2.51-4.39-4.01-6.4c0.14,0.14,0.27,0.28,0.4,0.42
	c1.32,1.44,2.47,3.01,3.43,4.71c0.05,0.09,0.18,0.01,0.14-0.08c-0.82-1.74-1.97-3.29-3.25-4.72c-0.96-1.08-2-2.23-3.13-3.2
	c-1.24-1.28-2.63-2.43-4.21-3.38C90.99,93.52,90.84,93.72,90.96,93.81z M100.98,107.18c-2.37-1.58-4.23-3.74-5.47-6.29
	C97.57,102.79,99.42,104.86,100.98,107.18z"/>
<path d="M71.57,147.14c1.4,0.79,2.91,1.41,4.51,1.63c0.3,0.04,0.61,0.08,0.91,0.09c0.24,0.02,0.49,0.02,0.73-0.02
	c0.41-0.37,0.48-0.74,0.22-1.11c-0.17-0.73-0.67-1.5-0.98-2.18c-0.05-0.11,0.04-0.21,0.15-0.21c3.11,0.01,5.65,2.36,8.71,2.7
	c-0.27-1.01-0.64-1.98-1.16-2.89c-0.12-0.21,0.1-0.4,0.29-0.4c1.41,0.01,2.76,0.4,3.99,1.06c-0.08-0.52-0.16-1.03-0.24-1.55
	c-0.04-0.24,0.21-0.45,0.44-0.35c1.18,0.47,2.38,0.83,3.61,1.07c-0.96-1.19-1.82-2.44-2.59-3.76c-0.13-0.22,0.11-0.44,0.32-0.43
	c1.95,0.04,3.73,0.87,4.98,2.37c0.18,0.22-0.15,0.48-0.34,0.28c-1.09-1.17-2.53-1.88-4.1-2.01c0.87,1.35,1.81,2.63,2.87,3.84
	c0.19,0.22-0.01,0.61-0.31,0.56c-1.42-0.22-2.8-0.59-4.14-1.09c0.08,0.55,0.16,1.1,0.24,1.65c0.04,0.28-0.28,0.45-0.5,0.31
	c-1.17-0.75-2.42-1.16-3.77-1.31c0.44,0.93,0.78,1.89,0.97,2.91c0.03,0.15-0.11,0.29-0.26,0.27c-3.11-0.35-5.67-2.38-8.76-2.86
	c0.25,0.53,0.5,1.07,0.75,1.6c0.16,0.34,0.49,0.8,0.41,1.2c-0.1,0.48-0.57,0.61-1.01,0.63c-2,0.09-4.34-0.83-6.01-1.86
	C71.4,147.21,71.49,147.09,71.57,147.14z"/>
</svg>
